<?xml version="1.0" encoding="UTF-8" standalone="no"?>
<!DOCTYPE svg PUBLIC "-//W3C//DTD SVG 1.1//EN" "http://www.w3.org/Graphics/SVG/1.1/DTD/svg11.dtd">
<svg width="100%" height="100%" viewBox="0 0 469 500" version="1.1" xmlns="http://www.w3.org/2000/svg" xmlns:xlink="http://www.w3.org/1999/xlink" xml:space="preserve" xmlns:serif="http://www.serif.com/" style="fill-rule:evenodd;clip-rule:evenodd;stroke-miterlimit:10;">
    <g id="Слой_1-2" transform="matrix(0.482151,0,0,0.482151,-10.3546,39.3962)">
        <path d="M167.55,279.29L132.92,259.41L170.07,237.97L204.7,257.85L167.55,279.29Z" style="fill:rgb(214,216,229);fill-opacity:0.4;fill-rule:nonzero;"/>
        <path d="M171.43,234.65L134.29,213.2L171.43,191.75L208.58,213.2L171.43,234.65Z" style="fill:rgb(239,218,134);fill-rule:nonzero;"/>
        <path d="M206.07,257.04L171.43,277.04L171.43,237.04L206.07,217.05L206.07,257.04Z" style="fill:rgb(209,182,107);fill-rule:nonzero;"/>
        <path d="M171.43,277.04L136.8,257.04L136.8,217.05L171.43,237.04L171.43,277.04Z" style="fill:rgb(226,201,121);fill-rule:nonzero;"/>
        <path d="M136.8,217.05L136.8,227.51L171.43,247.28L171.43,237.09L136.8,217.05Z" style="fill-rule:nonzero;"/>
        <path d="M206.07,217.05L206.07,228.26L171.43,247.28L171.43,237.09L206.07,217.05Z" style="fill-rule:nonzero;"/>
        <path d="M134.29,213.2L134.29,224.29L171.43,245.45L171.43,234.65L134.29,213.2Z" style="fill:rgb(226,201,121);fill-rule:nonzero;"/>
        <path d="M171.43,245.45L208.58,225.16L208.58,213.2L171.43,234.65L171.43,245.45Z" style="fill:rgb(209,182,107);fill-rule:nonzero;"/>
        <path d="M307,370L196.28,306.24C195.02,305.509 194.241,304.158 194.241,302.702C194.241,301.176 195.095,299.772 196.45,299.07L210.38,291.89C211.614,291.259 213.087,291.293 214.29,291.98L328.74,357.88C330.006,358.606 330.79,359.959 330.79,361.419C330.79,362.948 329.93,364.353 328.57,365.05L318.46,370.26C314.849,372.131 310.522,372.032 307,370Z" style="fill:rgb(214,216,229);fill-opacity:0.4;fill-rule:nonzero;"/>
        <path d="M313.8,358L219.44,303.52C211.44,298.91 204.97,286.52 204.97,275.87L204.97,12.68C205,2 211.45,-2.88 219.44,1.74L313.8,56.21C321.8,60.83 328.27,73.21 328.27,83.86L328.27,347.06C328.27,357.72 321.79,362.61 313.8,358Z" style="fill:rgb(177,180,196);fill-rule:nonzero;"/>
        <path d="M315.42,362.74L322.89,358.96L315.72,346.67L315.42,362.74Z" style="fill:rgb(177,180,196);fill-rule:nonzero;"/>
        <path d="M203.51,4.36L210.39,0.75L209,10.9L203.51,4.36Z" style="fill:rgb(177,180,196);fill-rule:nonzero;"/>
        <path d="M307.78,361L213.43,306.52C205.43,301.91 198.96,289.52 198.96,278.87L198.96,15.69C199,5 205.44,0.13 213.43,4.74L307.78,59.22C315.78,63.84 322.26,76.22 322.26,86.87L322.26,350.07C322.26,360.72 315.78,365.62 307.78,361Z" style="fill:rgb(97,110,132);fill-rule:nonzero;"/>
        <path d="M321.25,87.54L321.25,350.73C321.25,361.4 314.78,366.29 306.78,361.68L269.78,340.32L258.27,333.67L212.42,307.2C204.42,302.58 197.96,290.2 197.96,279.55L197.96,16.36C198,5.69 204.43,0.8 212.42,5.41L306.78,59.89C314.78,64.51 321.25,76.88 321.25,87.54Z" style="fill:rgb(32,35,45);fill-rule:nonzero;"/>
        <path d="M314.44,84.87L314.44,341.21C314.44,347.67 309.91,350.29 304.33,347.05L299.33,344.15L282.19,334.26L274.82,330L272.22,328.49L271.35,327.98L265,324.33L246.55,313.69L238.95,309.3L235.87,307.52L217.47,296.9L214.96,295.45C209.36,292.22 204.84,284.37 204.84,277.9L204.84,21.54C204.84,15.08 209.36,12.46 214.96,15.69L251.72,37L251.72,37.1C252.019,42.645 254.95,47.726 259.6,50.76C263.96,53.26 267.49,51.23 267.49,46.21L267.49,46.1L304.34,67.37C309.91,70.56 314.44,78.41 314.44,84.87Z" style="fill-rule:nonzero;"/>
        <g transform="matrix(0.87,-0.5,0.5,0.87,12.58,135.76)">
            <ellipse cx="259.6" cy="44.4" rx="2.44" ry="4.23" style="fill:rgb(43,48,63);"/>
        </g>
        <path d="M259.6,45.85C258.862,45.367 258.397,44.56 258.35,43.68C258.35,42.88 258.91,42.56 259.6,42.96C260.344,43.438 260.814,44.247 260.86,45.13C260.86,45.93 260.3,46.25 259.6,45.85Z" style="fill-rule:nonzero;"/>
        <path d="M325.08,122.17C324.31,122.62 323.69,122.17 323.69,121.17L323.69,109.9C323.703,108.843 324.22,107.854 325.08,107.24C325.85,106.79 326.47,107.24 326.47,108.29L326.47,119.51C326.457,120.567 325.94,121.556 325.08,122.17Z" style="fill:rgb(117,123,137);fill-rule:nonzero;"/>
        <path d="M325.08,140.56C324.31,141 323.69,140.56 323.69,139.51L323.69,128.28C323.708,127.225 324.224,126.237 325.08,125.62C325.85,125.18 326.47,125.62 326.47,126.68L326.47,137.9C326.455,138.956 325.939,139.945 325.08,140.56Z" style="fill:rgb(117,123,137);fill-rule:nonzero;"/>
        <path d="M293.84,172.51L222.84,131.51C219.84,129.77 217.38,125.1 217.38,121.07L217.38,41.07C217.38,37.07 219.82,35.2 222.84,36.94L293.84,77.94C296.84,79.68 299.3,84.35 299.3,88.37L299.3,168.37C299.3,172.4 296.86,174.25 293.84,172.51Z" style="fill:rgb(233,234,242);fill-rule:nonzero;"/>
        <path d="M293.84,279.56L222.84,238.56C219.84,236.82 217.38,232.15 217.38,228.13L217.38,148.13C217.38,144.13 219.82,142.26 222.84,144L293.84,185C296.84,186.74 299.3,191.41 299.3,195.44L299.3,275.44C299.3,279.45 296.86,281.3 293.84,279.56Z" style="fill:rgb(233,234,242);fill-rule:nonzero;"/>
        <path d="M299.31,302.46L299.31,344.15L274.82,330L272.22,328.49L271.35,327.98L265,324.33L246.55,313.69L238.9,309.28L235.82,307.5L217.42,296.88L217.42,255.18C217.42,251.18 219.87,249.32 222.88,251.06L293.88,292.06C296.86,293.77 299.31,298.44 299.31,302.46Z" style="fill:rgb(233,234,242);fill-rule:nonzero;"/>
        <path d="M279.71,106.47L270,89.64C269.631,88.971 269.098,88.406 268.45,88C268.364,87.949 268.274,87.905 268.18,87.87C268.091,87.803 267.998,87.743 267.9,87.69L265.2,86.13C264.46,85.7 263.77,85.73 263.37,86.22C262.51,87.22 260.57,87.13 258.43,85.89C256.276,84.645 254.552,82.771 253.49,80.52C253.126,79.607 252.482,78.833 251.65,78.31L249,76.76C248.914,76.706 248.824,76.659 248.73,76.62C248.241,76.164 247.528,76.035 246.91,76.29L237.2,81.9C236.34,82.4 236.34,83.99 237.2,85.47L242.51,94.67C242.863,95.332 243.375,95.895 244,96.31C244.452,96.632 245.044,96.69 245.55,96.46L246.77,95.75L246.77,118.25C246.879,119.781 247.707,121.173 249,122L267.9,133C269.11,133.7 270.08,133.13 270.08,131.74L270.08,109.24L271.31,111.36C271.675,112.027 272.205,112.588 272.85,112.99C273.302,113.312 273.894,113.37 274.4,113.14L279.71,110.07C280.56,109.54 280.56,108 279.71,106.47Z" style="fill:rgb(217,218,226);fill-rule:nonzero;"/>
        <path d="M275.6,209.26L241.25,189.43C240.342,192.376 239.86,195.437 239.82,198.52L239.82,220L255.56,229.09L258.43,212.57L261.29,232.4L277,241.49L277,220C276.924,216.38 276.454,212.779 275.6,209.26Z" style="fill:rgb(217,218,226);fill-rule:nonzero;"/>
        <path d="M275.6,202.65L241.25,182.82L241.25,187.78L275.6,207.61L275.6,202.65Z" style="fill:rgb(217,218,226);fill-rule:nonzero;"/>
        <path d="M282.17,334.26L274.82,330L272.22,328.49L271.35,327.98L265,324.33L246.55,313.69L238.95,309.3L238.95,298.74C238.95,297.69 239.68,297.26 240.6,297.74C241.308,298.219 241.834,298.924 242.09,299.74L242.4,300.74C243.443,304.006 245.585,306.812 248.46,308.68C252.13,310.8 255.13,309.07 255.13,304.82L255.13,303.54C255.13,302.24 256.05,301.69 257.13,302.35C257.663,302.678 258.112,303.127 258.44,303.66L261.37,308.15L258.07,310L259.9,313.14L263.36,311.14L264.86,313.45L261.71,315.27L263.52,318.42L266.85,316.5L268.35,318.81L265.35,320.55L267.16,323.7L270.35,321.86C272.209,324.597 274.625,326.911 277.44,328.65L278.02,328.97C279.945,330.231 281.403,332.09 282.17,334.26Z" style="fill:rgb(217,218,226);fill-rule:nonzero;"/>
        <path d="M305.41,98.86L216.76,48L216.76,16.59L305.41,67.44L305.41,98.86Z" style="fill-rule:nonzero;"/>
        <path d="M198.5,45.32L187.58,39.01L217.07,16.95L227.99,23.25L198.5,45.32Z" style="fill:rgb(226,97,97);fill-rule:nonzero;"/>
        <path d="M209.43,51.62L198.5,45.32L227.99,23.25L238.91,29.56L209.43,51.62Z" style="fill:rgb(244,245,249);fill-rule:nonzero;"/>
        <path d="M220.35,57.93L209.43,51.62L238.91,29.56L249.83,35.86L220.35,57.93Z" style="fill:rgb(226,97,97);fill-rule:nonzero;"/>
        <path d="M231.27,64.23L220.35,57.93L249.83,35.86L260.75,42.17L231.27,64.23Z" style="fill:rgb(244,245,249);fill-rule:nonzero;"/>
        <path d="M242.19,70.54L231.27,64.23L260.75,42.17L271.67,48.47L242.19,70.54Z" style="fill:rgb(226,97,97);fill-rule:nonzero;"/>
        <path d="M253.11,76.84L242.19,70.54L271.67,48.47L282.59,54.78L253.11,76.84Z" style="fill:rgb(244,245,249);fill-rule:nonzero;"/>
        <path d="M264.03,83.15L253.11,76.84L282.59,54.78L293.51,61.08L264.03,83.15Z" style="fill:rgb(226,97,97);fill-rule:nonzero;"/>
        <path d="M274.95,89.45L264.03,83.15L293.51,61.08L304.44,67.39L274.95,89.45Z" style="fill:rgb(244,245,249);fill-rule:nonzero;"/>
        <path d="M193.12,48.39C196.12,50.13 198.58,48.72 198.58,45.24L187.66,38.93C187.87,42.77 189.901,46.287 193.12,48.39Z" style="fill:rgb(226,97,97);fill-rule:nonzero;"/>
        <path d="M204.05,54.69C207.05,56.44 209.51,55.02 209.51,51.54L198.58,45.24C198.791,49.079 200.826,52.595 204.05,54.69Z" style="fill:rgb(244,245,249);fill-rule:nonzero;"/>
        <path d="M215,61C218,62.74 220.46,61.33 220.46,57.85L209.54,51.54C209.746,55.381 211.777,58.9 215,61Z" style="fill:rgb(226,97,97);fill-rule:nonzero;"/>
        <path d="M225.89,67.31C228.89,69.05 231.35,67.63 231.35,64.15L220.43,57.85C220.639,61.69 222.669,65.208 225.89,67.31Z" style="fill:rgb(244,245,249);fill-rule:nonzero;"/>
        <path d="M236.81,73.61C239.81,75.35 242.27,73.94 242.27,70.46L231.35,64.15C231.556,67.991 233.587,71.51 236.81,73.61Z" style="fill:rgb(226,97,97);fill-rule:nonzero;"/>
        <path d="M247.73,79.92C250.73,81.66 253.19,80.25 253.19,76.76L242.27,70.46C242.479,74.3 244.509,77.818 247.73,79.92Z" style="fill:rgb(244,245,249);fill-rule:nonzero;"/>
        <path d="M258.65,86.22C261.65,87.96 264.11,86.55 264.11,83.07L253.19,76.76C253.386,80.604 255.42,84.127 258.65,86.22Z" style="fill:rgb(226,97,97);fill-rule:nonzero;"/>
        <path d="M269.57,92.53C272.57,94.27 275.03,92.86 275.03,89.37L264.11,83.07C264.319,86.91 266.349,90.428 269.57,92.53Z" style="fill:rgb(244,245,249);fill-rule:nonzero;"/>
        <g opacity="0.15">
            <path d="M193.12,48.39C196.12,50.13 198.58,48.72 198.58,45.24L187.66,38.93C187.87,42.77 189.901,46.287 193.12,48.39Z" style="fill-rule:nonzero;"/>
            <path d="M204.05,54.69C207.05,56.44 209.51,55.02 209.51,51.54L198.58,45.24C198.791,49.079 200.826,52.595 204.05,54.69Z" style="fill-rule:nonzero;"/>
            <path d="M215,61C218,62.74 220.46,61.33 220.46,57.85L209.54,51.54C209.746,55.381 211.777,58.9 215,61Z" style="fill-rule:nonzero;"/>
            <path d="M225.89,67.31C228.89,69.05 231.35,67.63 231.35,64.15L220.43,57.85C220.639,61.69 222.669,65.208 225.89,67.31Z" style="fill-rule:nonzero;"/>
            <path d="M236.81,73.61C239.81,75.35 242.27,73.94 242.27,70.46L231.35,64.15C231.556,67.991 233.587,71.51 236.81,73.61Z" style="fill-rule:nonzero;"/>
            <path d="M247.73,79.92C250.73,81.66 253.19,80.25 253.19,76.76L242.27,70.46C242.479,74.3 244.509,77.818 247.73,79.92Z" style="fill-rule:nonzero;"/>
            <path d="M258.65,86.22C261.65,87.96 264.11,86.55 264.11,83.07L253.19,76.76C253.386,80.604 255.42,84.127 258.65,86.22Z" style="fill-rule:nonzero;"/>
            <path d="M269.57,92.53C272.57,94.27 275.03,92.86 275.03,89.37L264.11,83.07C264.319,86.91 266.349,90.428 269.57,92.53Z" style="fill-rule:nonzero;"/>
        </g>
        <path d="M380.78,394.51L341.29,371.71L346.24,368.84L385.74,391.63L380.78,394.51Z" style="fill:rgb(214,216,229);fill-opacity:0.4;fill-rule:nonzero;"/>
        <path d="M396.04,385.91L356.39,363.01L361.35,317.79L391.09,334.96L396.04,385.91Z" style="fill:rgb(198,85,85);fill-rule:nonzero;"/>
        <path d="M385.74,391.63L346.08,368.74L351.04,323.52L380.78,340.69L385.74,391.63Z" style="fill:rgb(255,108,108);fill-rule:nonzero;"/>
        <path d="M385.74,391.63L396.04,385.91L391.09,334.96L380.78,340.69L385.74,391.63Z" style="fill:rgb(221,98,98);fill-rule:nonzero;"/>
        <path d="M351.04,323.52L361.35,317.79L360.14,328.77L351.04,323.52Z" style="fill:rgb(198,85,85);fill-rule:nonzero;"/>
        <path d="M373.34,336.29L371.51,335.23C371.51,330.96 369,326.04 365.91,324.23C362.82,322.42 360.32,324.47 360.32,328.74L358.48,327.68C358.48,322.25 361.82,319.75 365.91,322.11C370,324.47 373.34,330.86 373.34,336.29Z" style="fill:rgb(32,35,45);fill-rule:nonzero;"/>
        <path d="M383,330.38L381.17,329.32C381.17,325.05 378.66,320.13 375.57,318.32C372.48,316.51 369.98,318.56 369.98,322.83L368.14,321.77C368.14,316.34 371.48,313.84 375.57,316.2C379.66,318.56 383,325 383,330.38Z" style="fill:rgb(32,35,45);fill-rule:nonzero;"/>
        <path d="M345.26,423.43L288.36,390.6L295.5,386.45L352.4,419.29L345.26,423.43Z" style="fill:rgb(214,216,229);fill-opacity:0.4;fill-rule:nonzero;"/>
        <path d="M367.24,411.04L310.12,378.06L317.26,312.92L360.1,337.66L367.24,411.04Z" style="fill:rgb(198,85,85);fill-rule:nonzero;"/>
        <path d="M352.4,419.29L295.27,386.31L302.41,321.17L345.26,345.9L352.4,419.29Z" style="fill:rgb(255,108,108);fill-rule:nonzero;"/>
        <path d="M352.4,419.29L367.24,411.04L360.1,337.66L345.26,345.9L352.4,419.29Z" style="fill:rgb(221,98,98);fill-rule:nonzero;"/>
        <path d="M302.41,321.17L317.26,312.92L315.52,328.74L302.41,321.17Z" style="fill:rgb(198,85,85);fill-rule:nonzero;"/>
        <path d="M334.54,339.57L331.9,338C331.9,331.85 328.28,324.76 323.84,322.2C319.4,319.64 315.77,322.54 315.77,328.69L313.13,327.17C313.13,319.34 317.93,315.74 323.84,319.17C329.75,322.6 334.54,331.74 334.54,339.57Z" style="fill:rgb(32,35,45);fill-rule:nonzero;"/>
        <path d="M348.47,331.06L345.83,329.53C345.83,323.38 342.21,316.29 337.77,313.72C333.33,311.15 329.7,314.07 329.7,320.22L327.06,318.7C327.06,310.86 331.87,307.27 337.77,310.7C343.67,314.13 348.47,323.22 348.47,331.06Z" style="fill:rgb(32,35,45);fill-rule:nonzero;"/>
        <path d="M109.47,280.6L88.09,268.33L112.1,254.47L133.47,266.75L109.47,280.6Z" style="fill:rgb(214,216,229);fill-opacity:0.4;fill-rule:nonzero;"/>
        <path d="M112.94,252.43L90.01,239.19L112.94,225.95L135.87,239.19L112.94,252.43Z" style="fill:rgb(239,218,134);fill-rule:nonzero;"/>
        <path d="M134.32,266.25L112.94,278.59L112.94,253.9L134.32,241.56L134.32,266.25Z" style="fill:rgb(209,182,107);fill-rule:nonzero;"/>
        <path d="M112.94,278.59L91.56,266.25L91.56,241.56L112.94,253.9L112.94,278.59Z" style="fill:rgb(226,201,121);fill-rule:nonzero;"/>
        <path d="M91.56,241.56L91.56,248.02L112.94,260.22L112.94,253.93L91.56,241.56Z" style="fill-rule:nonzero;"/>
        <path d="M134.32,241.56L134.32,248.48L112.94,260.22L112.94,253.93L134.32,241.56Z" style="fill-rule:nonzero;"/>
        <path d="M90.01,239.19L90.01,246.03L112.94,259.09L112.94,252.43L90.01,239.19Z" style="fill:rgb(226,201,121);fill-rule:nonzero;"/>
        <path d="M112.94,259.09L135.87,246.57L135.87,239.19L112.94,252.43L112.94,259.09Z" style="fill:rgb(209,182,107);fill-rule:nonzero;"/>
        <path d="M389.25,422.32L369.95,411.25L391.67,398.71L410.97,409.79L389.25,422.32Z" style="fill:rgb(214,216,229);fill-opacity:0.4;fill-rule:nonzero;"/>
        <path d="M392.43,396.86L371.73,384.91L392.43,372.96L413.13,384.91L392.43,396.86Z" style="fill:rgb(239,218,134);fill-rule:nonzero;"/>
        <path d="M411.73,409.34L392.43,420.48L392.43,398.19L411.73,387.05L411.73,409.34Z" style="fill:rgb(209,182,107);fill-rule:nonzero;"/>
        <path d="M392.43,420.48L373.13,409.34L373.13,387.05L392.43,398.19L392.43,420.48Z" style="fill:rgb(226,201,121);fill-rule:nonzero;"/>
        <path d="M373.13,387.05L373.13,392.88L392.43,403.9L392.43,398.22L373.13,387.05Z" style="fill-rule:nonzero;"/>
        <path d="M411.73,387.05L411.73,393.3L392.43,403.9L392.43,398.22L411.73,387.05Z" style="fill-rule:nonzero;"/>
        <path d="M371.73,384.91L371.73,391.09L392.43,402.88L392.43,396.86L371.73,384.91Z" style="fill:rgb(226,201,121);fill-rule:nonzero;"/>
        <path d="M392.43,402.88L413.13,391.57L413.13,384.91L392.43,396.86L392.43,402.88Z" style="fill:rgb(209,182,107);fill-rule:nonzero;"/>
        <path d="M161.37,313.52L120.28,289.81L125.44,286.82L166.53,310.53L161.37,313.52Z" style="fill:rgb(214,216,229);fill-opacity:0.4;fill-rule:nonzero;"/>
        <path d="M177.25,304.57L135.99,280.75L141.15,233.71L172.09,251.58L177.25,304.57Z" style="fill:rgb(198,85,85);fill-rule:nonzero;"/>
        <path d="M166.53,310.53L125.27,286.71L130.43,239.67L161.37,257.53L166.53,310.53Z" style="fill:rgb(255,108,108);fill-rule:nonzero;"/>
        <path d="M166.53,310.53L177.25,304.57L172.09,251.58L161.37,257.53L166.53,310.53Z" style="fill:rgb(221,98,98);fill-rule:nonzero;"/>
        <path d="M130.43,239.67L141.15,233.71L139.9,245.13L130.43,239.67Z" style="fill:rgb(198,85,85);fill-rule:nonzero;"/>
        <path d="M153.63,253L151.73,251.9C151.73,247.45 149.11,242.33 145.9,240.48C142.69,238.63 140.08,240.73 140.08,245.17L138.17,244.07C138.17,238.42 141.64,235.82 145.9,238.28C150.16,240.74 153.63,247.3 153.63,253Z" style="fill:rgb(32,35,45);fill-rule:nonzero;"/>
        <path d="M163.69,246.81L161.79,245.71C161.79,241.27 159.17,236.14 155.96,234.29C152.75,232.44 150.14,234.54 150.14,238.98L148.23,237.88C148.23,232.23 151.7,229.63 155.96,232.09C160.22,234.55 163.69,241.15 163.69,246.81Z" style="fill:rgb(32,35,45);fill-rule:nonzero;"/>
        <path d="M424.67,138.6L401.17,125C400.398,124.478 399.424,124.345 398.54,124.64C398.35,124.718 398.171,124.822 398.01,124.95L393.7,127.42L396.7,131.58L396.7,153.91C396.7,157.19 398.7,161 401.16,162.42L421.89,174.42L422.57,179.11C422.71,179.04 426.28,176.99 427.41,176.33C427.519,176.28 427.623,176.22 427.72,176.15C428.695,175.27 429.196,173.977 429.07,172.67L429.07,147.11C429.12,143.83 427.13,140 424.67,138.6Z" style="fill:rgb(217,218,226);fill-rule:nonzero;"/>
        <path d="M419.81,178.81L396.31,165.24C393.85,163.82 391.86,160.01 391.86,156.73L391.86,131.18C391.86,127.9 393.86,126.4 396.31,127.82L419.81,141.38C422.27,142.8 424.27,146.62 424.27,149.9L424.27,175.44C424.27,178.72 422.27,180.23 419.81,178.81Z" style="fill:rgb(239,240,249);fill-rule:nonzero;"/>
        <path d="M398.79,140.75C398.79,139.31 399.2,138.38 400.01,137.95C400.82,137.52 401.88,137.68 403.19,138.44C404.516,139.206 405.622,140.301 406.4,141.62C407.192,142.914 407.611,144.403 407.61,145.92L407.61,147.08C407.61,148.53 407.21,149.46 406.4,149.88C405.59,150.3 404.53,150.12 403.22,149.36C401.892,148.597 400.785,147.501 400.01,146.18C399.215,144.89 398.793,143.405 398.79,141.89L398.79,140.75ZM401.47,143.54C401.47,144.181 401.635,144.811 401.95,145.37C402.24,145.921 402.681,146.379 403.22,146.69C403.74,146.99 404.15,147.03 404.46,146.81C404.812,146.463 404.982,145.97 404.92,145.48L404.92,144.29C404.92,143.651 404.762,143.023 404.46,142.46C404.173,141.904 403.732,141.442 403.19,141.13C402.85,140.866 402.389,140.815 402,141C401.68,141.21 401.52,141.66 401.52,142.36L401.47,143.54ZM404,161L402,158.64L412,146L414,148.36L404,161ZM408.49,159.6C408.49,158.15 408.9,157.22 409.72,156.8C410.54,156.38 411.6,156.56 412.9,157.31C414.217,158.076 415.318,159.163 416.1,160.47C416.903,161.771 417.326,163.271 417.32,164.8L417.32,165.96C417.32,167.39 416.92,168.33 416.12,168.75C415.32,169.17 414.26,169 412.93,168.23C411.596,167.466 410.486,166.366 409.71,165.04C408.922,163.762 408.5,162.291 408.49,160.79L408.49,159.6ZM411.17,162.4C411.183,163.036 411.355,163.658 411.67,164.21C411.959,164.766 412.395,165.233 412.93,165.56C414.06,166.22 414.63,165.82 414.63,164.37L414.63,163.14C414.63,162.503 414.468,161.877 414.16,161.32C413.87,160.772 413.434,160.315 412.9,160C412.547,159.713 412.055,159.662 411.65,159.87C411.278,160.201 411.098,160.698 411.17,161.19L411.17,162.4Z" style="fill:rgb(226,97,97);fill-rule:nonzero;"/>
        <path d="M124.06,67.34L100.56,53.77C99.788,53.248 98.814,53.115 97.93,53.41C97.742,53.492 97.564,53.596 97.4,53.72L93.09,56.19L96.09,60.35L96.09,82.68C96.09,85.96 98.09,89.77 100.54,91.19L121.27,103.19L121.96,107.89L126.79,105.1C126.897,105.049 127,104.993 127.1,104.93C128.084,104.056 128.59,102.76 128.46,101.45L128.46,75.85C128.52,72.57 126.52,68.76 124.06,67.34Z" style="fill:rgb(217,218,226);fill-rule:nonzero;"/>
        <path d="M119.21,107.55L95.71,94C93.25,92.58 91.25,88.77 91.25,85.49L91.25,59.93C91.25,56.65 93.25,55.14 95.71,56.56L119.21,70.13C121.67,71.55 123.66,75.36 123.66,78.64L123.66,104.18C123.66,107.46 121.67,109 119.21,107.55Z" style="fill:rgb(239,240,249);fill-rule:nonzero;"/>
        <path d="M107.46,69.99L110.64,79.28L117.77,84.59L112.61,87.42L113.83,96.31L107.46,88.77L101.08,88.95L102.3,81.46L97.14,72.68L104.27,75.6L107.46,69.99Z" style="fill:rgb(249,203,7);fill-rule:nonzero;"/>
    </g>
    <g id="Слой_2">
        <g id="Слой_1-21" serif:id="Слой_1-2">
            <g id="Laptop">
                <path d="M450,384.63L199.93,240.23C196.42,238.23 193.58,232.77 193.58,228.1L193.58,34.63C193.58,29.95 196.42,27.8 199.93,29.83L450,174.23C453.51,176.23 456.35,181.69 456.35,186.36L456.35,379.83C456.39,384.51 453.55,386.66 450,384.63Z" style="fill:rgb(177,180,196);fill-rule:nonzero;"/>
                <path d="M451.33,386.63L454.1,385.03L452.9,376.82L451.33,386.63Z" style="fill:rgb(177,180,196);fill-rule:nonzero;"/>
                <path d="M193.13,31L195.86,29.42L199.78,31.66C199.78,31.66 195.6,32.29 195.5,32.27C195.4,32.25 193.13,31 193.13,31Z" style="fill:rgb(177,180,196);fill-rule:nonzero;"/>
                <path d="M447.75,386L197.64,241.56C194.13,239.56 191.28,234.1 191.28,229.42L191.28,36C191.28,31.32 194.13,29.17 197.64,31.2L447.75,175.6C451.26,177.6 454.1,183.06 454.1,187.74L454.1,381.16C454.1,385.83 451.26,388 447.75,386Z" style="fill:rgb(228,231,242);fill-rule:nonzero;"/>
                <path d="M447.31,386.21L197.2,241.81C193.69,239.81 190.84,234.35 190.84,229.67L190.84,36.2C190.84,31.53 193.69,29.38 197.2,31.4L447.31,175.8C450.81,177.8 453.66,183.26 453.66,187.94L453.66,381.41C453.66,386.09 450.81,388.24 447.31,386.21Z" style="fill-rule:nonzero;"/>
                <path d="M450.22,374.44L194,226.53L194.15,37C194.15,35.06 195.51,34.27 197.15,35.24L447.26,179.64C449.039,180.819 450.155,182.778 450.26,184.91L450.22,374.44Z" style="fill:white;fill-rule:nonzero;"/>
                <path d="M450.14,374.45L194,226.54L194.08,37C194.08,35.06 195.44,34.27 197.08,35.24L447.19,179.64C448.968,180.82 450.083,182.778 450.19,184.91L450.14,374.45Z" style="fill:url(#_Linear1);fill-rule:nonzero;"/>
                <path d="M258.67,498.63L8.56,354.23C5.05,352.23 5.49,348.67 9.56,346.33L177.11,249.59C181.11,247.26 187.29,247 190.79,249.03L440.91,393.43C444.41,395.43 443.97,398.99 439.91,401.33L272.35,498.07C268.3,500.4 262.17,500.66 258.67,498.63Z" style="fill-opacity:0.4;fill-rule:nonzero;"/>
                <path d="M264.13,495.35L14,351C10.49,349 10.93,345.44 15,343.1L182.55,246.37C186.55,244.03 192.73,243.77 196.24,245.8L446.35,390.2C449.86,392.2 449.42,395.76 445.35,398.1L277.82,494.79C273.77,497.12 267.64,497.38 264.13,495.35Z" style="fill:rgb(177,180,196);fill-rule:nonzero;"/>
                <path d="M11.65,347.69L11.65,342.97L16.95,345.19L11.65,347.69Z" style="fill:rgb(177,180,196);fill-rule:nonzero;"/>
                <path d="M448.72,393.68L448.72,389.07L444.8,390.42L447.4,394.24L448.72,393.68Z" style="fill:rgb(177,180,196);fill-rule:nonzero;"/>
                <path d="M264.13,491.38L14,347C10.49,345 10.93,341.44 15,339.1L182.55,242.36C186.55,240.02 192.73,239.77 196.24,241.8L446.35,386.2C449.86,388.2 449.42,391.76 445.35,394.1L277.82,490.81C273.77,493.15 267.64,493.41 264.13,491.38Z" style="fill:rgb(228,231,242);fill-rule:nonzero;"/>
                <path d="M264.13,490.77L14,346.37C10.49,344.37 10.93,340.8 15,338.47L182.55,241.73C186.55,239.39 192.73,239.14 196.24,241.16L446.35,385.57C449.86,387.57 449.42,391.13 445.35,393.47L277.82,490.2C273.77,492.54 267.64,492.79 264.13,490.77Z" style="fill-rule:nonzero;"/>
                <path d="M177.91,274.36L166.27,267.64C165.27,267.09 165.44,266.13 166.53,265.5L177.65,259.08C178.789,258.446 180.164,258.391 181.35,258.93L193,265.65C193.95,266.2 193.83,267.16 192.73,267.79L181.62,274.21C180.478,274.844 179.1,274.9 177.91,274.36Z" style="fill:rgb(43,48,63);fill-rule:nonzero;"/>
                <path d="M194.4,283.88L182.75,277.15C181.8,276.61 181.92,275.65 183.02,275.01L194.13,268.6C195.272,267.966 196.65,267.91 197.84,268.45L209.48,275.17C210.48,275.72 210.31,276.68 209.22,277.31L198.1,283.72C196.964,284.362 195.587,284.421 194.4,283.88Z" style="fill:rgb(43,48,63);fill-rule:nonzero;"/>
                <path d="M211.07,293.51L199.43,286.78C198.43,286.23 198.6,285.27 199.69,284.64L210.81,278.23C211.946,277.588 213.323,277.529 214.51,278.07L226.16,284.8C227.16,285.34 226.99,286.3 225.89,286.94L214.78,293.35C213.637,293.981 212.263,294.04 211.07,293.51Z" style="fill:rgb(43,48,63);fill-rule:nonzero;"/>
                <path d="M227.37,302.91L215.72,296.19C214.77,295.64 214.89,294.68 215.99,294.05L227.1,287.63C228.242,286.996 229.62,286.94 230.81,287.48L242.46,294.2C243.41,294.75 243.29,295.71 242.19,296.34L231.08,302.76C229.938,303.394 228.56,303.45 227.37,302.91Z" style="fill:rgb(43,48,63);fill-rule:nonzero;"/>
                <path d="M243.86,312.43L232.21,305.71C231.21,305.16 231.38,304.2 232.48,303.57L243.59,297.15C244.732,296.516 246.11,296.46 247.3,297L258.94,303.72C259.89,304.27 259.77,305.23 258.67,305.86L247.56,312.28C246.421,312.914 245.046,312.969 243.86,312.43Z" style="fill:rgb(43,48,63);fill-rule:nonzero;"/>
                <path d="M260.34,322L248.7,315.28C247.75,314.73 247.86,313.77 248.96,313.14L260.07,306.72C261.212,306.086 262.59,306.03 263.78,306.57L275.43,313.29C276.38,313.84 276.26,314.8 275.16,315.43L264.05,321.85C262.908,322.484 261.53,322.54 260.34,322Z" style="fill:rgb(43,48,63);fill-rule:nonzero;"/>
                <path d="M276.83,331.47L265.18,324.75C264.23,324.2 264.35,323.24 265.45,322.61L276.56,316.19C277.702,315.556 279.08,315.5 280.27,316.04L291.91,322.76C292.86,323.31 292.74,324.27 291.65,324.9L280.53,331.31C279.394,331.952 278.017,332.011 276.83,331.47Z" style="fill:rgb(43,48,63);fill-rule:nonzero;"/>
                <path d="M293.31,341L281.67,334.27C280.72,333.72 280.84,332.77 281.93,332.13L293.05,325.72C294.186,325.078 295.563,325.019 296.75,325.56L308.4,332.29C309.4,332.84 309.23,333.79 308.13,334.43L297,340.83C295.868,341.468 294.496,341.532 293.31,341Z" style="fill:rgb(43,48,63);fill-rule:nonzero;"/>
                <path d="M309.8,350.5L298.15,343.78C297.2,343.23 297.32,342.27 298.42,341.64L309.53,335.23C310.669,334.588 312.05,334.529 313.24,335.07L324.88,341.8C325.83,342.34 325.71,343.3 324.62,343.94L313.51,350.35C312.368,350.984 310.99,351.04 309.8,350.5Z" style="fill:rgb(43,48,63);fill-rule:nonzero;"/>
                <path d="M326.28,360L314.64,353.28C313.69,352.73 313.81,351.77 314.9,351.14L326,344.74C327.139,344.106 328.514,344.051 329.7,344.59L341.35,351.31C342.3,351.86 342.18,352.82 341.08,353.45L330,359.87C328.852,360.501 327.469,360.549 326.28,360Z" style="fill:rgb(43,48,63);fill-rule:nonzero;"/>
                <path d="M342.77,369.54L331.12,362.82C330.17,362.27 330.29,361.31 331.39,360.68L342.5,354.26C343.642,353.626 345.02,353.57 346.21,354.11L357.86,360.83C358.81,361.38 358.69,362.34 357.59,362.97L346.48,369.39C345.338,370.024 343.96,370.08 342.77,369.54Z" style="fill:rgb(43,48,63);fill-rule:nonzero;"/>
                <path d="M359.26,379.06L347.61,372.34C346.66,371.79 346.78,370.83 347.88,370.2L359,363.78C360.142,363.146 361.52,363.09 362.71,363.63L374.35,370.35C375.35,370.9 375.18,371.86 374.08,372.49L363,378.91C361.851,379.557 360.457,379.613 359.26,379.06Z" style="fill:rgb(43,48,63);fill-rule:nonzero;"/>
                <path d="M375.74,388.58L364.1,381.85C363.1,381.3 363.26,380.35 364.36,379.71L375.47,373.3C376.611,372.663 377.989,372.603 379.18,373.14L390.83,379.87C391.78,380.42 391.66,381.37 390.56,382.01L379.45,388.42C378.311,389.062 376.93,389.121 375.74,388.58Z" style="fill:rgb(43,48,63);fill-rule:nonzero;"/>
                <path d="M400.17,402.68L380.58,391.37C379.63,390.82 379.75,389.86 380.85,389.23L392,382.82C393.139,382.178 394.52,382.119 395.71,382.66L415.25,394C416.2,394.55 416.08,395.51 414.99,396.14L403.87,402.56C402.726,403.184 401.352,403.229 400.17,402.68Z" style="fill:rgb(43,48,63);fill-rule:nonzero;"/>
                <path d="M186.39,297.7L174.74,291C173.74,290.45 173.91,289.49 175.01,288.86L186.12,282.44C187.262,281.806 188.64,281.75 189.83,282.29L201.47,289C202.42,289.55 202.3,290.51 201.21,291.14L190.09,297.56C188.95,298.191 187.575,298.243 186.39,297.7Z" style="fill:rgb(43,48,63);fill-rule:nonzero;"/>
                <path d="M202.9,307.24L191.26,300.52C190.31,299.97 190.43,299.01 191.52,298.38L202.64,292C203.779,291.366 205.154,291.311 206.34,291.85L218,298.53C218.95,299.08 218.83,300.04 217.73,300.67L206.62,307.09C205.475,307.727 204.093,307.783 202.9,307.24Z" style="fill:rgb(43,48,63);fill-rule:nonzero;"/>
                <path d="M219.42,316.77L207.77,310.05C206.77,309.5 206.94,308.54 208.04,307.91L219.15,301.49C220.292,300.856 221.67,300.8 222.86,301.34L234.5,308.06C235.45,308.61 235.33,309.57 234.24,310.2L223.12,316.62C221.981,317.254 220.606,317.309 219.42,316.77Z" style="fill:rgb(43,48,63);fill-rule:nonzero;"/>
                <path d="M235.93,326.31L224.28,319.58C223.33,319.04 223.45,318.08 224.55,317.44L235.66,311C236.801,310.363 238.179,310.303 239.37,310.84L251,317.6C251.95,318.15 251.83,319.1 250.73,319.74L239.62,326.15C238.486,326.785 237.115,326.845 235.93,326.31Z" style="fill:rgb(43,48,63);fill-rule:nonzero;"/>
                <path d="M252.31,335.77L240.67,329C239.72,328.45 239.84,327.5 240.93,326.86L252.05,320.45C253.186,319.808 254.563,319.749 255.75,320.29L267.4,327.02C268.4,327.56 268.23,328.52 267.13,329.16L256,335.61C254.865,336.241 253.496,336.3 252.31,335.77Z" style="fill:rgb(43,48,63);fill-rule:nonzero;"/>
                <path d="M268.83,345.3L257.18,338.58C256.23,338.03 256.35,337.07 257.45,336.44L268.56,330C269.702,329.366 271.08,329.31 272.27,329.85L283.91,336.57C284.86,337.12 284.74,338.08 283.65,338.71L272.53,345.13C271.394,345.77 270.019,345.833 268.83,345.3Z" style="fill:rgb(43,48,63);fill-rule:nonzero;"/>
                <path d="M285.34,354.83L273.69,348.11C272.74,347.56 272.86,346.6 273.96,345.97L285.07,339.56C286.209,338.918 287.59,338.859 288.78,339.4L300.43,346.13C301.38,346.67 301.26,347.63 300.16,348.27L289.05,354.68C287.908,355.314 286.53,355.37 285.34,354.83Z" style="fill:rgb(43,48,63);fill-rule:nonzero;"/>
                <path d="M301.85,364.37L290.21,357.65C289.26,357.1 289.38,356.14 290.48,355.51L301.59,349.09C302.729,348.456 304.104,348.401 305.29,348.94L316.94,355.66C317.89,356.21 317.77,357.17 316.67,357.8L305.56,364.22C304.418,364.854 303.04,364.91 301.85,364.37Z" style="fill:rgb(43,48,63);fill-rule:nonzero;"/>
                <path d="M318.37,373.9L306.72,367.18C305.72,366.63 305.89,365.67 306.99,365.04L318.1,358.62C319.242,357.986 320.62,357.93 321.81,358.47L333.45,365.19C334.4,365.74 334.29,366.7 333.19,367.33L322.08,373.75C320.938,374.384 319.56,374.44 318.37,373.9Z" style="fill:rgb(43,48,63);fill-rule:nonzero;"/>
                <path d="M334.88,383.44L323.24,376.71C322.29,376.17 322.41,375.21 323.5,374.57L334.62,368.16C335.759,367.528 337.131,367.468 338.32,368L350,374.73C350.95,375.28 350.83,376.24 349.73,376.87L338.62,383.28C337.473,383.932 336.079,383.992 334.88,383.44Z" style="fill:rgb(43,48,63);fill-rule:nonzero;"/>
                <path d="M351.4,393L339.75,386.28C338.8,385.73 338.92,384.77 340.02,384.14L351.13,377.72C352.272,377.086 353.65,377.03 354.84,377.57L366.48,384.29C367.43,384.84 367.31,385.8 366.22,386.43L355.1,392.85C353.961,393.484 352.586,393.539 351.4,393Z" style="fill:rgb(43,48,63);fill-rule:nonzero;"/>
                <path d="M367.91,402.51L356.27,395.78C355.32,395.23 355.43,394.28 356.53,393.64L367.64,387.23C368.781,386.593 370.159,386.533 371.35,387.07L383,393.8C383.95,394.35 383.83,395.3 382.73,395.94L371.62,402.35C370.481,402.992 369.1,403.051 367.91,402.51Z" style="fill:rgb(43,48,63);fill-rule:nonzero;"/>
                <path d="M169.87,288.17L150.29,276.86C149.34,276.31 149.46,275.36 150.55,274.72L161.67,268.31C162.806,267.668 164.183,267.609 165.37,268.15L185,279.46C185.95,280.01 185.83,280.97 184.73,281.6L173.58,288C172.441,288.64 171.063,288.704 169.87,288.17Z" style="fill:rgb(43,48,63);fill-rule:nonzero;"/>
                <path d="M399.37,403.29L387.73,396.57C386.644,396.015 385.356,396.015 384.27,396.57L372.53,403.35C371.53,403.9 371.53,404.79 372.53,405.35L373.46,405.89C374.34,406.39 374.33,407.22 373.46,407.73L361,414.89C360,415.45 360,416.34 361,416.89L368.41,421.17C369.493,421.72 370.777,421.72 371.86,421.17L383.48,414.47L385.88,413.08L387.61,412.08L389.35,411.08L399.35,405.31C400.32,404.73 400.32,403.84 399.37,403.29Z" style="fill:rgb(43,48,63);fill-rule:nonzero;"/>
                <path d="M114.06,311.3L102.42,304.58C101.42,304.03 101.59,303.07 102.68,302.44L113.8,296C114.939,295.366 116.314,295.311 117.5,295.85L129.15,302.57C130.1,303.12 129.98,304.08 128.88,304.71L117.77,311.13C116.631,311.77 115.253,311.834 114.06,311.3Z" style="fill:rgb(43,48,63);fill-rule:nonzero;"/>
                <path d="M130.5,320.79L118.86,314.07C117.86,313.52 118.03,312.56 119.12,311.93L130.24,305.51C131.379,304.876 132.754,304.821 133.94,305.36L145.59,312.08C146.54,312.63 146.42,313.59 145.32,314.22L134.21,320.64C133.068,321.274 131.69,321.33 130.5,320.79Z" style="fill:rgb(43,48,63);fill-rule:nonzero;"/>
                <path d="M146.94,330.28L135.3,323.56C134.3,323.01 134.46,322.05 135.56,321.42L146.67,315C147.812,314.366 149.19,314.31 150.38,314.85L162,321.57C162.95,322.12 162.83,323.08 161.73,323.71L150.62,330.13C149.486,330.754 148.121,330.81 146.94,330.28Z" style="fill:rgb(43,48,63);fill-rule:nonzero;"/>
                <path d="M286.94,411.11L275.29,404.38C274.29,403.84 274.46,402.88 275.56,402.24L286.67,395.83C287.811,395.193 289.189,395.133 290.38,395.67L302,402.4C303,402.95 302.83,403.9 301.73,404.54L290.64,411C289.496,411.626 288.119,411.667 286.94,411.11Z" style="fill:rgb(43,48,63);fill-rule:nonzero;"/>
                <path d="M303.37,420.6L291.73,413.88C290.73,413.33 290.9,412.37 291.99,411.74L303.11,405.32C304.249,404.686 305.624,404.631 306.81,405.17L318.46,411.89C319.46,412.44 319.29,413.4 318.19,414.03L307.08,420.45C305.938,421.084 304.56,421.14 303.37,420.6Z" style="fill:rgb(43,48,63);fill-rule:nonzero;"/>
                <path d="M319.81,430.09L308.17,423.37C307.22,422.82 307.34,421.86 308.43,421.23L319.55,414.81C320.689,414.176 322.064,414.121 323.25,414.66L334.9,421.38C335.9,421.93 335.73,422.89 334.63,423.52L323.52,429.94C322.378,430.574 321,430.63 319.81,430.09Z" style="fill:rgb(43,48,63);fill-rule:nonzero;"/>
                <path d="M336.25,439.58L324.61,432.86C323.66,432.31 323.78,431.35 324.87,430.72L336,424.3C337.139,423.666 338.514,423.611 339.7,424.15L351.35,430.87C352.35,431.42 352.18,432.38 351.08,433.01L340,439.43C338.847,440.077 337.451,440.133 336.25,439.58Z" style="fill:rgb(43,48,63);fill-rule:nonzero;"/>
                <path d="M167.61,342.22L151.73,333.05C150.78,332.5 150.9,331.54 152,330.91L163.11,324.49C164.252,323.856 165.63,323.8 166.82,324.34L182.7,333.51C183.7,334.06 183.53,335.01 182.43,335.65L171.32,342.06C170.181,342.702 168.8,342.761 167.61,342.22Z" style="fill:rgb(43,48,63);fill-rule:nonzero;"/>
                <path d="M270.5,401.62L254.62,392.45C253.62,391.9 253.79,390.94 254.88,390.31L266,383.89C267.139,383.256 268.514,383.201 269.7,383.74L285.58,392.91C286.53,393.46 286.41,394.41 285.32,395.05L274.2,401.46C273.064,402.102 271.687,402.161 270.5,401.62Z" style="fill:rgb(43,48,63);fill-rule:nonzero;"/>
                <path d="M249.82,389.68L172.41,345C171.46,344.45 171.58,343.49 172.67,342.86L183.79,336.44C184.929,335.806 186.304,335.751 187.49,336.29L264.91,381C265.86,381.55 265.74,382.51 264.64,383.14L253.53,389.56C252.383,390.184 251.005,390.229 249.82,389.68Z" style="fill:rgb(43,48,63);fill-rule:nonzero;"/>
                <path d="M174.89,309.52L163.25,302.8C162.3,302.25 162.42,301.29 163.52,300.66L174.63,294.24C175.769,293.606 177.144,293.551 178.33,294.09L190,300.81C191,301.36 190.83,302.32 189.73,302.95L178.62,309.37C177.472,310.011 176.085,310.066 174.89,309.52Z" style="fill:rgb(43,48,63);fill-rule:nonzero;"/>
                <path d="M191.36,319L179.72,312.27C178.77,311.72 178.89,310.77 179.98,310.13L191.1,303.72C192.237,303.083 193.612,303.024 194.8,303.56L206.45,310.29C207.45,310.84 207.28,311.79 206.18,312.43L195.07,318.84C193.931,319.482 192.55,319.541 191.36,319Z" style="fill:rgb(43,48,63);fill-rule:nonzero;"/>
                <path d="M207.83,328.53L196.18,321.81C195.18,321.26 195.35,320.3 196.45,319.67L207.56,313.25C208.702,312.616 210.08,312.56 211.27,313.1L222.91,319.82C223.91,320.37 223.75,321.33 222.65,321.96L211.54,328.38C210.398,329.014 209.02,329.07 207.83,328.53Z" style="fill:rgb(43,48,63);fill-rule:nonzero;"/>
                <path d="M224.3,338L212.65,331.28C211.65,330.73 211.82,329.77 212.92,329.14L224,322.76C225.142,322.126 226.52,322.07 227.71,322.61L239.35,329.33C240.35,329.88 240.18,330.84 239.09,331.47L228,337.89C226.855,338.511 225.48,338.552 224.3,338Z" style="fill:rgb(43,48,63);fill-rule:nonzero;"/>
                <path d="M240.76,347.55L229.12,340.83C228.12,340.28 228.29,339.32 229.38,338.69L240.5,332.27C241.639,331.636 243.014,331.581 244.2,332.12L255.85,338.84C256.85,339.39 256.68,340.35 255.58,340.98L244.47,347.4C243.328,348.034 241.95,348.09 240.76,347.55Z" style="fill:rgb(43,48,63);fill-rule:nonzero;"/>
                <path d="M257.23,357.06L245.59,350.33C244.59,349.78 244.75,348.83 245.85,348.19L257,341.78C258.139,341.138 259.52,341.079 260.71,341.62L272.36,348.35C273.31,348.9 273.19,349.85 272.09,350.49L260.98,356.9C259.83,357.555 258.431,357.615 257.23,357.06Z" style="fill:rgb(43,48,63);fill-rule:nonzero;"/>
                <path d="M273.7,366.56L262.05,359.84C261.1,359.29 261.22,358.33 262.32,357.7L273.43,351.28C274.572,350.646 275.95,350.59 277.14,351.13L288.78,357.85C289.78,358.4 289.61,359.36 288.52,359.99L277.4,366.41C276.261,367.044 274.886,367.099 273.7,366.56Z" style="fill:rgb(43,48,63);fill-rule:nonzero;"/>
                <path d="M290.17,376.07L278.52,369.35C277.57,368.8 277.69,367.84 278.79,367.21L289.9,360.79C291.042,360.156 292.42,360.1 293.61,360.64L305.25,367.36C306.2,367.91 306.08,368.87 304.98,369.5L293.87,375.92C292.731,376.554 291.356,376.609 290.17,376.07Z" style="fill:rgb(43,48,63);fill-rule:nonzero;"/>
                <path d="M306.63,385.58L295,378.86C294.05,378.31 294.17,377.35 295.26,376.72L306.38,370.3C307.519,369.666 308.894,369.611 310.08,370.15L321.73,376.87C322.68,377.42 322.56,378.38 321.46,379.01L310.35,385.43C309.205,386.067 307.823,386.123 306.63,385.58Z" style="fill:rgb(43,48,63);fill-rule:nonzero;"/>
                <path d="M323.1,395.09L311.45,388.36C310.5,387.81 310.62,386.86 311.72,386.22L322.83,379.81C323.969,379.168 325.35,379.109 326.54,379.65L338.19,386.38C339.14,386.92 339.02,387.88 337.92,388.52L326.81,394.93C325.669,395.567 324.291,395.627 323.1,395.09Z" style="fill:rgb(43,48,63);fill-rule:nonzero;"/>
                <path d="M339.57,404.59L327.92,397.87C326.97,397.32 327.09,396.36 328.19,395.73L339.3,389.31C340.442,388.676 341.82,388.62 343.01,389.16L354.65,395.88C355.65,396.43 355.48,397.39 354.39,398.02L343.27,404.44C342.131,405.074 340.756,405.129 339.57,404.59Z" style="fill:rgb(43,48,63);fill-rule:nonzero;"/>
                <path d="M356,414.1L344.36,407.38C343.41,406.83 343.53,405.87 344.63,405.24L355.74,398.82C356.879,398.186 358.254,398.131 359.44,398.67L371.09,405.39C372.04,405.94 371.92,406.9 370.82,407.53L359.74,414C358.582,414.628 357.19,414.665 356,414.1Z" style="fill:rgb(43,48,63);fill-rule:nonzero;"/>
                <path d="M158.43,300L134.34,286.1C133.34,285.55 133.51,284.59 134.61,283.96L145.72,277.54C146.862,276.906 148.24,276.85 149.43,277.39L173.51,291.29C174.51,291.84 174.34,292.8 173.25,293.43L162.13,299.85C160.991,300.484 159.616,300.539 158.43,300Z" style="fill:rgb(43,48,63);fill-rule:nonzero;"/>
                <path d="M150.74,314L139.1,307.3C138.15,306.75 138.26,305.8 139.36,305.16L150.47,298.75C151.609,298.108 152.99,298.049 154.18,298.59L165.83,305.32C166.78,305.86 166.66,306.82 165.56,307.46L154.45,313.87C153.304,314.498 151.927,314.546 150.74,314Z" style="fill:rgb(43,48,63);fill-rule:nonzero;"/>
                <path d="M167.21,323.53L155.56,316.81C154.61,316.26 154.73,315.3 155.83,314.67L166.94,308.25C168.082,307.616 169.46,307.56 170.65,308.1L182.29,314.82C183.29,315.37 183.12,316.33 182.03,316.96L170.91,323.38C169.771,324.014 168.396,324.069 167.21,323.53Z" style="fill:rgb(43,48,63);fill-rule:nonzero;"/>
                <path d="M183.67,333L172,326.31C171,325.76 171.17,324.81 172.27,324.17L183.38,317.76C184.521,317.123 185.899,317.063 187.09,317.6L198.74,324.33C199.74,324.88 199.57,325.83 198.47,326.47L187.36,332.88C186.22,333.502 184.849,333.547 183.67,333Z" style="fill:rgb(43,48,63);fill-rule:nonzero;"/>
                <path d="M200.13,342.54L188.49,335.82C187.49,335.27 187.66,334.31 188.76,333.68L199.87,327.26C201.009,326.626 202.384,326.571 203.57,327.11L215.22,333.83C216.17,334.38 216.05,335.34 214.95,335.97L203.84,342.39C202.698,343.024 201.32,343.08 200.13,342.54Z" style="fill:rgb(43,48,63);fill-rule:nonzero;"/>
                <path d="M216.6,352.05L205,345.33C204.05,344.78 204.17,343.82 205.27,343.19L216.38,336.77C217.522,336.136 218.9,336.08 220.09,336.62L231.73,343.34C232.68,343.89 232.57,344.85 231.47,345.48L220.36,351.89C219.208,352.549 217.804,352.609 216.6,352.05Z" style="fill:rgb(43,48,63);fill-rule:nonzero;"/>
                <path d="M233.06,361.55L221.42,354.83C220.47,354.28 220.59,353.32 221.68,352.69L232.8,346.27C233.939,345.636 235.314,345.581 236.5,346.12L248.15,352.84C249.1,353.39 248.98,354.35 247.88,354.98L236.77,361.4C235.628,362.034 234.25,362.09 233.06,361.55Z" style="fill:rgb(43,48,63);fill-rule:nonzero;"/>
                <path d="M249.53,371.06L237.88,364.34C236.93,363.79 237.05,362.83 238.15,362.2L249.26,355.78C250.402,355.146 251.78,355.09 252.97,355.63L264.61,362.35C265.56,362.9 265.44,363.86 264.35,364.49L253.24,370.91C252.098,371.544 250.72,371.6 249.53,371.06Z" style="fill:rgb(43,48,63);fill-rule:nonzero;"/>
                <path d="M266,380.57L254.36,373.84C253.41,373.29 253.53,372.34 254.62,371.7L265.74,365.29C266.876,364.648 268.253,364.589 269.44,365.13L281.09,371.86C282.04,372.4 281.92,373.36 280.82,374L269.71,380.41C268.569,381.047 267.191,381.107 266,380.57Z" style="fill:rgb(43,48,63);fill-rule:nonzero;"/>
                <path d="M282.46,390.07L270.81,383.35C269.86,382.8 269.98,381.84 271.08,381.21L282.19,374.79C283.332,374.156 284.71,374.1 285.9,374.64L297.54,381.36C298.49,381.91 298.37,382.87 297.28,383.5L286.16,389.92C285.021,390.554 283.646,390.609 282.46,390.07Z" style="fill:rgb(43,48,63);fill-rule:nonzero;"/>
                <path d="M298.92,399.58L287.28,392.85C286.33,392.31 286.45,391.35 287.54,390.71L298.66,384.3C299.797,383.663 301.172,383.604 302.36,384.14L314,390.87C314.95,391.42 314.83,392.37 313.73,393.01L302.62,399.42C301.483,400.059 300.108,400.118 298.92,399.58Z" style="fill:rgb(43,48,63);fill-rule:nonzero;"/>
                <path d="M315.39,409.08L303.74,402.36C302.79,401.81 302.91,400.85 304.01,400.22L315.12,393.8C316.262,393.166 317.64,393.11 318.83,393.65L330.47,400.37C331.42,400.92 331.3,401.88 330.21,402.51L319.09,408.93C317.951,409.564 316.576,409.619 315.39,409.08Z" style="fill:rgb(43,48,63);fill-rule:nonzero;"/>
                <path d="M352.23,430.36L320.23,411.87C319.28,411.32 319.39,410.36 320.49,409.73L331.6,403.31C332.742,402.676 334.12,402.62 335.31,403.16L367.31,421.65C368.26,422.19 368.14,423.15 367.04,423.79L355.93,430.2C354.792,430.834 353.419,430.893 352.23,430.36Z" style="fill:rgb(43,48,63);fill-rule:nonzero;"/>
                <path d="M134.28,304.52L118.4,295.35C117.4,294.8 117.57,293.84 118.66,293.21L129.78,286.8C130.916,286.158 132.293,286.099 133.48,286.64L149.36,295.81C150.31,296.36 150.19,297.32 149.1,297.95L138,304.37C136.856,305.01 135.472,305.066 134.28,304.52Z" style="fill:rgb(43,48,63);fill-rule:nonzero;"/>
                <path d="M416.71,393.13L182.87,258.13C181.87,257.59 182.04,256.63 183.14,255.99L188.7,252.79C189.837,252.153 191.212,252.094 192.4,252.63L426.24,387.63C427.19,388.18 427.07,389.13 425.97,389.77L420.42,393C419.274,393.628 417.897,393.676 416.71,393.13Z" style="fill:rgb(43,48,63);fill-rule:nonzero;"/>
                <path d="M271.85,408.48C271.516,409.207 270.945,409.8 270.23,410.16L205.89,447.31C203.695,448.53 201.047,448.638 198.76,447.6L88.76,384.11C88.29,383.866 87.911,383.477 87.68,383C87.28,382 87.84,380.89 89.3,380.05L153.65,342.89C155.845,341.67 158.493,341.562 160.78,342.6L270.78,406.09C271.697,406.487 272.164,407.531 271.85,408.48Z" style="fill:rgb(177,180,196);fill-rule:nonzero;"/>
                <path d="M271.85,408.48C271.516,409.207 270.945,409.8 270.23,410.16L205.89,447.31C203.695,448.53 201.047,448.638 198.76,447.6L88.76,384.11C88.29,383.866 87.911,383.477 87.68,383C88.021,382.28 88.591,381.693 89.3,381.33L153.65,344.18C155.844,342.958 158.492,342.847 160.78,343.88L270.78,407.38C271.247,407.62 271.623,408.007 271.85,408.48Z" style="fill:rgb(195,198,209);fill-rule:nonzero;"/>
                <path d="M434.51,382.89L200.67,247.89C199.627,247.118 199.007,245.898 199,244.6L199,241.85C199,240.58 199.77,240 200.72,240.55L434.56,375.55C435.622,376.307 436.261,377.526 436.28,378.83L436.28,381.58C436.23,382.86 435.46,383.44 434.51,382.89Z" style="fill:rgb(43,48,63);fill-rule:nonzero;"/>
                <path d="M236,234.56L212.9,221.25C210.01,219.58 207.66,215.09 207.66,211.25L207.66,186.48C207.66,182.62 210.01,180.85 212.9,182.48L236,195.83C238.9,197.5 241.24,201.99 241.24,205.83L241.24,230.6C241.2,234.46 238.86,236.23 236,234.56Z" style="fill:rgb(233,234,242);fill-rule:nonzero;"/>
                <path d="M235.91,177.83L212.85,164.52C209.96,162.85 207.61,156.02 207.61,152.68L207.61,123.76C207.61,119.9 209.96,118.13 212.85,119.76L235.91,133.07C238.81,134.74 241.15,139.23 241.15,143.07L241.15,171.99C241.15,175.39 238.81,179.5 235.91,177.83Z" style="fill:rgb(233,234,242);fill-rule:nonzero;"/>
                <path d="M224.51,158.51C219.82,155.8 216,149.18 216,143.76C216,138.34 219.82,136.13 224.51,138.84C229.2,141.55 233.03,148.17 233.03,153.59C233.03,159.01 229.21,161.22 224.51,158.51ZM224.51,141.36C221.02,139.36 218.18,140.99 218.18,145.02C218.411,149.484 220.767,153.577 224.51,156.02C228.01,158.02 230.85,156.4 230.85,152.37C230.62,147.901 228.26,143.803 224.51,141.36Z" style="fill:rgb(140,80,255);fill-rule:nonzero;"/>
                <path d="M226.85,154.5L222.99,148.36L222.99,143.25L225.17,144.51L225.17,148.48L228.29,153.43L226.85,154.5Z" style="fill:rgb(140,80,255);fill-rule:nonzero;"/>
                <path d="M235.88,116.66L212.82,103.35C209.93,101.67 207.58,94.15 207.58,90.8L207.58,64.18C207.58,60.84 209.93,59.48 212.82,61.18L235.88,74.5C238.972,76.512 240.922,79.886 241.12,83.57L241.12,110.2C241.12,113.51 238.78,118.33 235.88,116.66Z" style="fill:rgb(233,234,242);fill-rule:nonzero;"/>
                <path d="M224.35,84.75C222.96,83.95 221.84,84.6 221.84,86.21C221.934,87.976 222.868,89.595 224.35,90.56C225.74,91.36 226.87,90.71 226.87,89.11C226.769,87.341 225.833,85.72 224.35,84.75ZM231.06,85.75L229.06,84.59C228.736,84.369 228.502,84.039 228.4,83.66L227.88,81.55C227.771,81.172 227.534,80.843 227.21,80.62L221.51,77.33C221.23,77.17 220.94,77.24 220.85,77.5L220.33,79C220.262,79.158 220.106,79.261 219.935,79.261C219.839,79.261 219.746,79.229 219.67,79.17L217.67,78.01C216.75,77.47 216,77.91 216,79.01L216,87.73C216.064,88.906 216.685,89.984 217.67,90.63L231.09,98.38C232.01,98.91 232.77,98.48 232.77,97.38L232.77,88.63C232.697,87.444 232.061,86.361 231.06,85.72L231.06,85.75ZM224.35,92.53C221.881,90.915 220.323,88.216 220.16,85.27C220.16,82.59 222.04,81.51 224.35,82.85C226.825,84.46 228.385,87.162 228.54,90.11C228.54,92.75 226.67,93.84 224.35,92.5L224.35,92.53ZM230.47,88.7C230.129,88.478 229.913,88.106 229.89,87.7C229.89,87.32 230.15,87.17 230.47,87.36C230.815,87.58 231.035,87.952 231.06,88.36C231.06,88.71 230.8,88.86 230.47,88.67L230.47,88.7Z" style="fill:rgb(140,80,255);fill-rule:nonzero;"/>
                <path d="M231.63,210.35C231.63,214.86 224.56,220.72 224.56,220.72C224.56,220.72 217.48,206.72 217.48,202.18C217.48,197.64 220.65,195.84 224.56,198.09C228.732,200.815 231.362,205.374 231.63,210.35Z" style="fill:rgb(140,80,255);fill-rule:nonzero;"/>
                <g transform="matrix(0.866025,-0.5,0.5,0.866025,-72.89,139.88)">
                    <ellipse cx="224.56" cy="205.95" rx="3.78" ry="6.54" style="fill:rgb(233,234,242);"/>
                </g>
                <path d="M399.13,271L259.52,190.39C257.16,189.04 255.26,185.39 255.26,182.26L255.26,88.43C255.26,85.3 257.16,83.86 259.52,85.22L399.13,165.82C401.48,167.18 403.38,170.82 403.38,173.96L403.38,267.78C403.38,270.92 401.48,272.36 399.13,271Z" style="fill:rgb(233,234,242);fill-rule:nonzero;"/>
                <path d="M383,202.79L274.79,140.32C272.17,138.8 270.04,134.74 270.04,131.25L270.04,124.18C270.04,120.68 272.17,119.08 274.79,120.59L383,183.06C385.62,184.57 387.74,188.63 387.74,192.13L387.74,199.2C387.74,202.7 385.62,204.3 383,202.79Z" style="fill:white;fill-rule:nonzero;"/>
                <path d="M324.15,200.6L274.79,172.1C272.17,170.59 270.04,166.53 270.04,163.03L270.04,156C270.04,152.5 272.17,150.9 274.79,152.41L324.15,180.91C326.77,182.42 328.89,186.48 328.89,189.98L328.89,197C328.89,200.5 326.77,202.11 324.15,200.6Z" style="fill:rgb(140,80,255);fill-rule:nonzero;"/>
                <path d="M427.86,291.64C427.86,291.64 375.23,303.24 332.68,255.98C290.13,208.72 255.42,214.78 255.42,214.78L255.42,244.28L427.86,343.83L427.86,291.64Z" style="fill:url(#_Linear2);fill-rule:nonzero;"/>
                <path d="M427.86,291.64C427.86,291.64 375.23,303.24 332.68,255.98C290.13,208.72 255.42,214.78 255.42,214.78" style="fill:none;fill-rule:nonzero;stroke:rgb(204,206,221);stroke-width:1.06px;"/>
            </g>
            <g id="Men_12">
                <path id="_Контур_" d="M255.19,44.4C253.651,47.152 251.781,49.704 249.62,52C249.02,52.7 244.39,50.93 245.36,50.43C246.33,49.93 249.36,45.71 250.88,42.89C252.152,39.523 253.233,36.088 254.12,32.6C255.07,29.15 255.89,24.09 256.59,21.71C256.955,19.918 258.345,18.5 260.13,18.1C261.8,17.71 262.88,18.17 262.57,20.19C262,23.71 259.27,37.45 255.19,44.4Z" style="fill:rgb(255,206,169);fill-rule:nonzero;"/>
                <path d="M257.84,98.25C256.41,99.42 254.29,98.35 254.18,98.46C252.495,100.021 250.729,101.493 248.89,102.87C247.99,103.57 246.6,104.51 246.89,105.87C247.34,108.28 251.21,107.54 252.67,106.8C254.13,106.06 255.33,104.8 256.67,103.98C257.67,103.36 258.67,103.05 258.78,101.8C258.87,101.05 258.1,98.22 257.84,98.25Z" style="fill:rgb(56,34,109);fill-rule:nonzero;"/>
                <path d="M258.76,101.3C258.57,102.49 257.61,102.82 256.63,103.43C255.23,104.3 253.99,105.56 252.53,106.3C251.07,107.04 247.82,107.66 246.87,105.93C247.38,108.26 251.19,107.53 252.63,106.8C254.07,106.07 255.29,104.8 256.63,103.98C257.63,103.36 258.63,103.05 258.74,101.8C258.76,101.634 258.767,101.467 258.76,101.3Z" style="fill:rgb(156,115,255);fill-rule:nonzero;"/>
                <path d="M243.28,89.86C241.85,91.03 239.34,89.76 239.23,89.86C237.74,91.377 236.161,92.803 234.5,94.13C233.6,94.84 232.21,95.78 232.5,97.13C232.95,99.55 236.82,98.81 238.29,98.07C239.76,97.33 240.94,96.07 242.29,95.24C243.29,94.63 244.29,94.31 244.4,93.07C244.48,92.32 243.54,89.83 243.28,89.86Z" style="fill:rgb(56,34,109);fill-rule:nonzero;"/>
                <path d="M244.35,92.74C244.16,93.93 243.2,94.26 242.22,94.87C240.82,95.74 239.58,97 238.12,97.74C236.66,98.48 233.4,99.1 232.46,97.37C232.97,99.7 236.77,98.97 238.22,98.24C239.67,97.51 240.87,96.24 242.22,95.41C243.22,94.8 244.22,94.49 244.33,93.24C244.35,93.074 244.357,92.907 244.35,92.74Z" style="fill:rgb(156,115,255);fill-rule:nonzero;"/>
                <path id="_Контур_2_" serif:id="_Контур_2" d="M277,52.24C278.59,62.18 274.18,65.89 268.44,68C264.32,69.52 258.44,71.86 258.44,71.86C258.44,71.86 258.52,74.04 258.56,78.93C258.56,83.24 258.04,98.93 258.04,98.93C256.66,99.64 255.02,99.64 253.64,98.93C252.26,98.22 251.33,86.88 250.84,81.44C250.17,74.07 249.04,69.24 249.42,67.65C249.75,66.25 257.81,62.29 260.37,60.17L243.48,65.83C243.816,67.661 243.98,69.519 243.97,71.38C243.82,77.23 243.49,89.9 243.49,89.9C243.49,89.9 241.18,91.57 239.2,89.9C239.2,89.9 234.95,64.83 235.47,61.51C235.96,58.36 250.84,51.92 253.47,49.7C254.394,48.949 255.594,48.626 256.77,48.81L277,52.24Z" style="fill:rgb(140,80,255);fill-rule:nonzero;"/>
                <g id="_Группа_">
                    <g id="_Группа_2_" serif:id="_Группа_2">
                        <path id="_Контур_3_" serif:id="_Контур_3" d="M236.54,56.38L247.89,49.83C248.09,49.71 248.34,49.71 248.54,49.83L268.44,61.32L256.77,68.06L236.54,56.38Z" style="fill:rgb(244,244,244);fill-rule:nonzero;"/>
                        <path d="M257.3,65.65L258.17,66.15C258.24,66.15 258.23,66.26 258.17,66.31L257.34,66.79C257.254,66.83 257.156,66.83 257.07,66.79L256.2,66.29C256.13,66.29 256.14,66.18 256.2,66.13L257.03,65.65C257.116,65.61 257.214,65.61 257.3,65.65Z" style="fill:rgb(58,44,109);fill-rule:nonzero;"/>
                        <path d="M256.08,65L256.94,65.49C257.01,65.49 257,65.61 256.94,65.65L256.12,66.13C256.032,66.175 255.928,66.175 255.84,66.13L254.98,65.63C254.91,65.63 254.92,65.52 254.98,65.47L255.8,65C255.887,64.95 255.993,64.95 256.08,65Z" style="fill:rgb(58,44,109);fill-rule:nonzero;"/>
                        <path d="M254.84,64.23L255.7,64.73C255.77,64.73 255.77,64.84 255.7,64.89L254.88,65.36C254.792,65.405 254.688,65.405 254.6,65.36L253.74,64.86C253.67,64.86 253.68,64.75 253.74,64.7L254.56,64.22C254.65,64.179 254.754,64.182 254.84,64.23Z" style="fill:rgb(58,44,109);fill-rule:nonzero;"/>
                        <path d="M253.63,63.53L254.49,64.03C254.56,64.03 254.56,64.14 254.49,64.19L253.67,64.67C253.581,64.71 253.479,64.71 253.39,64.67L252.53,64.17C252.46,64.17 252.47,64.06 252.53,64.01L253.35,63.53C253.439,63.49 253.541,63.49 253.63,63.53Z" style="fill:rgb(58,44,109);fill-rule:nonzero;"/>
                        <path d="M252.4,62.82L253.27,63.32C253.34,63.32 253.33,63.44 253.27,63.48L252.44,63.96C252.356,64.004 252.254,64.004 252.17,63.96L251.3,63.46C251.23,63.46 251.24,63.35 251.3,63.3L252.13,62.83C252.213,62.782 252.314,62.779 252.4,62.82Z" style="fill:rgb(58,44,109);fill-rule:nonzero;"/>
                        <path d="M251.18,62.12L252.05,62.62C252.12,62.62 252.11,62.73 252.05,62.78L251.22,63.25C251.136,63.294 251.034,63.294 250.95,63.25L250.08,62.75C250.01,62.75 250.02,62.64 250.08,62.6L250.91,62.12C250.994,62.076 251.096,62.076 251.18,62.12Z" style="fill:rgb(58,44,109);fill-rule:nonzero;"/>
                        <path d="M250,61.41L250.86,61.91C250.93,61.91 250.92,62.02 250.86,62.07L250.04,62.55C249.951,62.59 249.849,62.59 249.76,62.55L248.9,62.05C248.83,62.05 248.83,61.94 248.9,61.89L249.72,61.41C249.809,61.37 249.911,61.37 250,61.41Z" style="fill:rgb(58,44,109);fill-rule:nonzero;"/>
                        <path d="M248.73,60.7L249.6,61.2C249.67,61.2 249.66,61.32 249.6,61.36L248.77,61.84C248.686,61.884 248.584,61.884 248.5,61.84L247.63,61.34C247.56,61.34 247.57,61.23 247.63,61.18L248.46,60.71C248.543,60.662 248.644,60.659 248.73,60.7Z" style="fill:rgb(58,44,109);fill-rule:nonzero;"/>
                        <path d="M247.51,60L248.37,60.5C248.44,60.5 248.43,60.61 248.37,60.66L247.55,61.13C247.462,61.175 247.358,61.175 247.27,61.13L246.41,60.63C246.34,60.63 246.35,60.52 246.41,60.48L247.23,60C247.318,59.955 247.422,59.955 247.51,60Z" style="fill:rgb(58,44,109);fill-rule:nonzero;"/>
                        <path d="M246.28,59.29L247.15,59.79C247.22,59.79 247.21,59.9 247.15,59.95L246.32,60.43C246.234,60.47 246.136,60.47 246.05,60.43L245.18,59.93C245.11,59.93 245.12,59.82 245.18,59.77L246.01,59.29C246.094,59.246 246.196,59.246 246.28,59.29Z" style="fill:rgb(58,44,109);fill-rule:nonzero;"/>
                        <path d="M245.06,58.58L245.92,59.08C245.99,59.08 245.99,59.19 245.92,59.24L245.1,59.72C245.012,59.765 244.908,59.765 244.82,59.72L243.96,59.22C243.89,59.22 243.9,59.11 243.96,59.06L244.78,58.59C244.866,58.542 244.97,58.539 245.06,58.58Z" style="fill:rgb(58,44,109);fill-rule:nonzero;"/>
                        <path d="M243.84,57.88L244.7,58.38C244.77,58.38 244.76,58.49 244.7,58.54L243.87,59.01C243.786,59.054 243.684,59.054 243.6,59.01L242.73,58.51C242.66,58.51 242.67,58.4 242.73,58.35L243.56,57.88C243.648,57.835 243.752,57.835 243.84,57.88Z" style="fill:rgb(58,44,109);fill-rule:nonzero;"/>
                        <path d="M242.61,57.17L243.48,57.67C243.55,57.67 243.54,57.78 243.48,57.83L242.65,58.3C242.566,58.344 242.464,58.344 242.38,58.3L241.51,57.8C241.44,57.8 241.45,57.68 241.51,57.64L242.34,57.16C242.426,57.119 242.527,57.122 242.61,57.17Z" style="fill:rgb(58,44,109);fill-rule:nonzero;"/>
                        <path d="M240.8,56.12L242.25,56.96C242.32,56.96 242.31,57.07 242.25,57.12L241.43,57.6C241.341,57.64 241.239,57.64 241.15,57.6L239.7,56.76C239.63,56.76 239.63,56.65 239.7,56.6L240.52,56.12C240.609,56.08 240.711,56.08 240.8,56.12Z" style="fill:rgb(58,44,109);fill-rule:nonzero;"/>
                        <path d="M256.67,63.92L257.54,64.42C257.61,64.42 257.6,64.53 257.54,64.58L256.71,65.05C256.627,65.1 256.523,65.1 256.44,65.05L255.57,64.56C255.5,64.56 255.51,64.44 255.57,64.4L256.4,63.92C256.484,63.876 256.586,63.876 256.67,63.92Z" style="fill:rgb(58,44,109);fill-rule:nonzero;"/>
                        <path d="M255.45,63.21L256.31,63.71C256.38,63.71 256.37,63.82 256.31,63.87L255.49,64.35C255.401,64.39 255.299,64.39 255.21,64.35L254.35,63.85C254.28,63.85 254.28,63.74 254.35,63.69L255.17,63.21C255.258,63.165 255.362,63.165 255.45,63.21Z" style="fill:rgb(58,44,109);fill-rule:nonzero;"/>
                        <path d="M254.22,62.5L255.08,63C255.16,63 255.15,63.11 255.08,63.16L254.26,63.64C254.171,63.68 254.069,63.68 253.98,63.64L253.12,63.14C253.05,63.14 253.06,63.03 253.12,62.98L253.94,62.5C254.029,62.46 254.131,62.46 254.22,62.5Z" style="fill:rgb(58,44,109);fill-rule:nonzero;"/>
                        <path d="M253,61.79L253.87,62.29C253.94,62.29 253.93,62.41 253.87,62.45L253.04,62.93C252.956,62.974 252.854,62.974 252.77,62.93L251.9,62.43C251.83,62.43 251.84,62.32 251.9,62.27L252.73,61.8C252.813,61.752 252.914,61.749 253,61.79Z" style="fill:rgb(58,44,109);fill-rule:nonzero;"/>
                        <path d="M251.78,61.09L252.64,61.59C252.71,61.59 252.7,61.7 252.64,61.75L251.82,62.23C251.731,62.27 251.629,62.27 251.54,62.23L250.68,61.73C250.61,61.73 250.61,61.62 250.68,61.57L251.5,61.09C251.589,61.05 251.691,61.05 251.78,61.09Z" style="fill:rgb(58,44,109);fill-rule:nonzero;"/>
                        <path d="M250.55,60.38L251.42,60.88C251.49,60.88 251.48,61 251.42,61.04L250.59,61.52C250.506,61.564 250.404,61.564 250.32,61.52L249.45,61.02C249.38,61.02 249.39,60.91 249.45,60.86L250.28,60.39C250.363,60.342 250.464,60.339 250.55,60.38Z" style="fill:rgb(58,44,109);fill-rule:nonzero;"/>
                        <path d="M249.32,59.68L250.19,60.18C250.26,60.18 250.25,60.29 250.19,60.33L249.36,60.81C249.276,60.854 249.174,60.854 249.09,60.81L248.22,60.31C248.15,60.31 248.16,60.2 248.22,60.15L249.05,59.68C249.134,59.636 249.236,59.636 249.32,59.68Z" style="fill:rgb(58,44,109);fill-rule:nonzero;"/>
                        <path d="M248.1,59L248.96,59.5C249.03,59.5 249.02,59.61 248.96,59.66L248.14,60.13C248.052,60.175 247.948,60.175 247.86,60.13L247,59.63C246.93,59.63 246.94,59.52 247,59.48L247.82,59C247.908,58.955 248.012,58.955 248.1,59Z" style="fill:rgb(58,44,109);fill-rule:nonzero;"/>
                        <path d="M246.87,58.26L247.74,58.76C247.81,58.76 247.8,58.87 247.74,58.92L246.91,59.39C246.826,59.434 246.724,59.434 246.64,59.39L245.77,58.89C245.7,58.89 245.71,58.77 245.77,58.73L246.6,58.25C246.686,58.209 246.787,58.212 246.87,58.26Z" style="fill:rgb(58,44,109);fill-rule:nonzero;"/>
                        <path d="M245.65,57.55L246.51,58.05C246.58,58.05 246.57,58.16 246.51,58.21L245.68,58.69C245.594,58.73 245.496,58.73 245.41,58.69L244.54,58.19C244.47,58.19 244.48,58.08 244.54,58.03L245.37,57.55C245.459,57.51 245.561,57.51 245.65,57.55Z" style="fill:rgb(58,44,109);fill-rule:nonzero;"/>
                        <path d="M244.42,56.84L245.28,57.34C245.35,57.34 245.35,57.45 245.28,57.5L244.46,57.98C244.372,58.025 244.268,58.025 244.18,57.98L243.32,57.48C243.25,57.48 243.26,57.37 243.32,57.32L244.14,56.84C244.229,56.8 244.331,56.8 244.42,56.84Z" style="fill:rgb(58,44,109);fill-rule:nonzero;"/>
                        <path d="M243.19,56.14L244.06,56.63C244.13,56.63 244.12,56.75 244.06,56.79L243.23,57.27C243.146,57.314 243.044,57.314 242.96,57.27L242.09,56.77C242.02,56.77 242.03,56.66 242.09,56.61L242.92,56.14C243.003,56.09 243.107,56.09 243.19,56.14Z" style="fill:rgb(58,44,109);fill-rule:nonzero;"/>
                        <path d="M257.9,64.63L259.35,65.47C259.42,65.47 259.42,65.58 259.35,65.63L258.53,66.1C258.442,66.145 258.338,66.145 258.25,66.1L256.8,65.26C256.73,65.26 256.74,65.15 256.8,65.1L257.62,64.63C257.708,64.585 257.812,64.585 257.9,64.63Z" style="fill:rgb(58,44,109);fill-rule:nonzero;"/>
                        <path d="M240.86,56.08L241.72,56.58C241.802,56.619 241.898,56.619 241.98,56.58L242.85,56.07C242.881,56.058 242.902,56.028 242.902,55.995C242.902,55.962 242.881,55.932 242.85,55.92L242.78,55.92C242.72,55.92 242.72,55.83 242.78,55.79L243.7,55.26C243.78,55.26 243.78,55.15 243.7,55.11L243.15,54.79C243.068,54.751 242.972,54.751 242.89,54.79L242.03,55.29L241.85,55.39L241.72,55.47L241.59,55.54L240.85,55.97C240.824,56.003 240.828,56.052 240.86,56.08Z" style="fill:rgb(58,44,109);fill-rule:nonzero;"/>
                        <path d="M262,62.91L262.87,63.41C262.94,63.41 262.93,63.52 262.87,63.57L262.04,64.04C261.957,64.09 261.853,64.09 261.77,64.04L260.9,63.55C260.83,63.5 260.84,63.43 260.9,63.39L261.73,62.91C261.814,62.866 261.916,62.866 262,62.91Z" style="fill:rgb(58,44,109);fill-rule:nonzero;"/>
                        <path d="M260.82,62.2L261.69,62.7C261.76,62.7 261.75,62.82 261.69,62.86L260.86,63.34C260.776,63.384 260.674,63.384 260.59,63.34L259.72,62.84C259.65,62.84 259.66,62.73 259.72,62.68L260.55,62.21C260.633,62.162 260.734,62.159 260.82,62.2Z" style="fill:rgb(58,44,109);fill-rule:nonzero;"/>
                        <path d="M259.6,61.5L260.47,62C260.54,62 260.53,62.11 260.47,62.16L259.64,62.63C259.556,62.674 259.454,62.674 259.37,62.63L258.5,62.13C258.43,62.13 258.44,62.01 258.5,61.97L259.33,61.49C259.416,61.449 259.517,61.452 259.6,61.5Z" style="fill:rgb(58,44,109);fill-rule:nonzero;"/>
                        <path d="M249.21,55.5L250.07,56C250.14,56 250.13,56.11 250.07,56.16L249.25,56.63C249.162,56.675 249.058,56.675 248.97,56.63L248.11,56.13C248.03,56.13 248.04,56.02 248.11,55.97L248.93,55.5C249.018,55.455 249.122,55.455 249.21,55.5Z" style="fill:rgb(58,44,109);fill-rule:nonzero;"/>
                        <path d="M248,54.79L248.87,55.29C248.94,55.29 248.93,55.4 248.87,55.45L248.04,55.93C247.954,55.97 247.856,55.97 247.77,55.93L246.9,55.43C246.83,55.43 246.84,55.32 246.9,55.27L247.73,54.79C247.816,54.75 247.914,54.75 248,54.79Z" style="fill:rgb(58,44,109);fill-rule:nonzero;"/>
                        <path d="M246.76,54.09L247.63,54.59C247.7,54.59 247.69,54.7 247.63,54.75L246.8,55.22C246.716,55.264 246.614,55.264 246.53,55.22L245.66,54.72C245.59,54.72 245.6,54.61 245.66,54.57L246.49,54.09C246.574,54.046 246.676,54.046 246.76,54.09Z" style="fill:rgb(58,44,109);fill-rule:nonzero;"/>
                        <path d="M245.54,53.38L246.41,53.88C246.48,53.88 246.47,53.99 246.41,54.04L245.58,54.52C245.494,54.56 245.396,54.56 245.31,54.52L244.44,54.02C244.37,54.02 244.38,53.91 244.44,53.86L245.27,53.38C245.356,53.34 245.454,53.34 245.54,53.38Z" style="fill:rgb(58,44,109);fill-rule:nonzero;"/>
                        <path d="M258.07,60.61L259.25,61.29C259.32,61.29 259.31,61.41 259.25,61.45L258.42,61.93C258.336,61.974 258.234,61.974 258.15,61.93L257,61.26C256.93,61.26 256.93,61.15 257,61.1L257.82,60.62C257.899,60.585 257.988,60.581 258.07,60.61Z" style="fill:rgb(58,44,109);fill-rule:nonzero;"/>
                        <path d="M250.43,56.2L251.61,56.88C251.68,56.88 251.67,56.99 251.61,57.04L250.78,57.52C250.694,57.56 250.596,57.56 250.51,57.52L249.33,56.84C249.26,56.84 249.26,56.73 249.33,56.68L250.15,56.2C250.239,56.16 250.341,56.16 250.43,56.2Z" style="fill:rgb(58,44,109);fill-rule:nonzero;"/>
                        <path d="M252,57.09L257.75,60.41C257.82,60.41 257.81,60.52 257.75,60.57L256.93,61.04C256.842,61.085 256.738,61.085 256.65,61.04L250.9,57.72C250.83,57.72 250.84,57.61 250.9,57.57L251.73,57.09C251.814,57.046 251.916,57.046 252,57.09Z" style="fill:rgb(58,44,109);fill-rule:nonzero;"/>
                        <path d="M257.53,63L258.39,63.5C258.46,63.5 258.45,63.61 258.39,63.66L257.57,64.14C257.481,64.18 257.379,64.18 257.29,64.14L256.43,63.64C256.36,63.64 256.36,63.53 256.43,63.48L257.25,63C257.339,62.96 257.441,62.96 257.53,63Z" style="fill:rgb(58,44,109);fill-rule:nonzero;"/>
                        <path d="M256.3,62.33L257.17,62.83C257.24,62.83 257.23,62.95 257.17,62.99L256.34,63.47C256.256,63.514 256.154,63.514 256.07,63.47L255.2,62.97C255.13,62.97 255.14,62.86 255.2,62.81L256.03,62.34C256.113,62.292 256.214,62.289 256.3,62.33Z" style="fill:rgb(58,44,109);fill-rule:nonzero;"/>
                        <path d="M255.08,61.63L255.95,62.13C256.02,62.13 256.01,62.24 255.95,62.29L255.12,62.76C255.032,62.805 254.928,62.805 254.84,62.76L253.98,62.26C253.91,62.21 253.92,62.14 253.98,62.1L254.81,61.62C254.896,61.579 254.997,61.582 255.08,61.63Z" style="fill:rgb(58,44,109);fill-rule:nonzero;"/>
                        <path d="M253.86,60.92L254.72,61.42C254.79,61.42 254.78,61.53 254.72,61.58L253.9,62.06C253.811,62.1 253.709,62.1 253.62,62.06L252.76,61.56C252.69,61.56 252.7,61.45 252.76,61.4L253.58,60.92C253.669,60.88 253.771,60.88 253.86,60.92Z" style="fill:rgb(58,44,109);fill-rule:nonzero;"/>
                        <path d="M252.63,60.22L253.5,60.72C253.57,60.72 253.56,60.83 253.5,60.88L252.67,61.35C252.586,61.394 252.484,61.394 252.4,61.35L251.53,60.85C251.46,60.85 251.47,60.74 251.53,60.69L252.36,60.22C252.444,60.176 252.546,60.176 252.63,60.22Z" style="fill:rgb(58,44,109);fill-rule:nonzero;"/>
                        <path d="M251.41,59.51L252.28,60.01C252.35,60.01 252.34,60.12 252.28,60.17L251.45,60.65C251.364,60.69 251.266,60.69 251.18,60.65L250.31,60.15C250.24,60.15 250.25,60.04 250.31,59.99L251.14,59.51C251.226,59.47 251.324,59.47 251.41,59.51Z" style="fill:rgb(58,44,109);fill-rule:nonzero;"/>
                        <path d="M250.19,58.8L251.05,59.3C251.12,59.3 251.12,59.42 251.05,59.46L250.23,59.94C250.142,59.985 250.038,59.985 249.95,59.94L249.09,59.44C249.02,59.44 249.03,59.33 249.09,59.28L249.91,58.81C249.996,58.762 250.1,58.759 250.19,58.8Z" style="fill:rgb(58,44,109);fill-rule:nonzero;"/>
                        <path d="M249,58.1L249.86,58.6C249.93,58.6 249.92,58.71 249.86,58.76L249.04,59.23C248.953,59.28 248.847,59.28 248.76,59.23L247.9,58.74C247.83,58.74 247.83,58.62 247.9,58.58L248.72,58.1C248.808,58.055 248.912,58.055 249,58.1Z" style="fill:rgb(58,44,109);fill-rule:nonzero;"/>
                        <path d="M247.74,57.39L248.61,57.89C248.68,57.89 248.67,58 248.61,58.05L247.78,58.53C247.694,58.57 247.596,58.57 247.51,58.53L246.64,58.03C246.57,58.03 246.58,57.92 246.64,57.87L247.47,57.39C247.556,57.35 247.654,57.35 247.74,57.39Z" style="fill:rgb(58,44,109);fill-rule:nonzero;"/>
                        <path d="M246.52,56.69L247.38,57.19C247.46,57.19 247.45,57.3 247.38,57.34L246.55,57.82C246.462,57.865 246.358,57.865 246.27,57.82L245.41,57.32C245.34,57.32 245.35,57.21 245.41,57.16L246.23,56.69C246.321,56.642 246.429,56.642 246.52,56.69Z" style="fill:rgb(58,44,109);fill-rule:nonzero;"/>
                        <path d="M245.3,56L246.16,56.5C246.23,56.5 246.22,56.61 246.16,56.66L245.34,57.14C245.251,57.18 245.149,57.18 245.06,57.14L244.2,56.64C244.13,56.64 244.14,56.53 244.2,56.48L245,56C245.093,55.948 245.207,55.948 245.3,56Z" style="fill:rgb(58,44,109);fill-rule:nonzero;"/>
                        <path d="M244.07,55.27L244.94,55.77C245.01,55.77 245,55.89 244.94,55.93L244.11,56.41C244.026,56.454 243.924,56.454 243.84,56.41L242.97,55.91C242.9,55.91 242.91,55.8 242.97,55.75L243.8,55.28C243.883,55.232 243.984,55.229 244.07,55.27Z" style="fill:rgb(58,44,109);fill-rule:nonzero;"/>
                        <path d="M258.75,63.75L260.54,64.75C260.61,64.75 260.6,64.86 260.54,64.91L259.71,65.39C259.624,65.43 259.526,65.43 259.44,65.39L257.65,64.39C257.58,64.39 257.59,64.28 257.65,64.23L258.47,63.76C258.556,63.712 258.66,63.709 258.75,63.75Z" style="fill:rgb(58,44,109);fill-rule:nonzero;"/>
                        <path d="M259.32,62.71L260.18,63.21C260.26,63.21 260.25,63.32 260.18,63.36L259.36,63.84C259.272,63.885 259.168,63.885 259.08,63.84L258.22,63.34C258.15,63.34 258.16,63.23 258.22,63.18L259.04,62.71C259.128,62.665 259.232,62.665 259.32,62.71Z" style="fill:rgb(58,44,109);fill-rule:nonzero;"/>
                        <path d="M258.1,62L258.96,62.5C259.03,62.5 259.02,62.61 258.96,62.66L258.14,63.14C258.051,63.18 257.949,63.18 257.86,63.14L257,62.64C256.93,62.64 256.94,62.53 257,62.48L257.82,62C257.908,61.955 258.012,61.955 258.1,62Z" style="fill:rgb(58,44,109);fill-rule:nonzero;"/>
                        <path d="M256.87,61.29L257.74,61.79C257.81,61.79 257.8,61.91 257.74,61.95L256.91,62.43C256.826,62.474 256.724,62.474 256.64,62.43L255.77,61.93C255.7,61.93 255.71,61.82 255.77,61.77L256.6,61.3C256.683,61.252 256.784,61.249 256.87,61.29Z" style="fill:rgb(58,44,109);fill-rule:nonzero;"/>
                        <path d="M255.65,60.59L256.52,61.09C256.59,61.09 256.58,61.2 256.52,61.25L255.69,61.72C255.607,61.77 255.503,61.77 255.42,61.72L254.55,61.23C254.48,61.18 254.49,61.11 254.55,61.07L255.38,60.59C255.464,60.546 255.566,60.546 255.65,60.59Z" style="fill:rgb(58,44,109);fill-rule:nonzero;"/>
                        <path d="M254.43,59.88L255.29,60.38C255.36,60.38 255.36,60.49 255.29,60.54L254.47,61.02C254.381,61.06 254.279,61.06 254.19,61.02L253.33,60.52C253.26,60.52 253.27,60.41 253.33,60.36L254.15,59.88C254.239,59.84 254.341,59.84 254.43,59.88Z" style="fill:rgb(58,44,109);fill-rule:nonzero;"/>
                        <path d="M253.21,59.18L254.07,59.68C254.14,59.68 254.13,59.79 254.07,59.83L253.25,60.31C253.162,60.355 253.058,60.355 252.97,60.31L252.11,59.81C252.04,59.81 252.04,59.7 252.11,59.65L252.93,59.18C253.018,59.135 253.122,59.135 253.21,59.18Z" style="fill:rgb(58,44,109);fill-rule:nonzero;"/>
                        <path d="M252,58.47L252.87,58.97C252.94,58.97 252.93,59.08 252.87,59.13L252.04,59.61C251.954,59.65 251.856,59.65 251.77,59.61L250.9,59.11C250.83,59.11 250.84,59 250.9,58.95L251.73,58.47C251.816,58.43 251.914,58.43 252,58.47Z" style="fill:rgb(58,44,109);fill-rule:nonzero;"/>
                        <path d="M250.76,57.76L251.63,58.26C251.7,58.26 251.69,58.38 251.63,58.42L250.8,58.9C250.716,58.944 250.614,58.944 250.53,58.9L249.66,58.4C249.59,58.4 249.6,58.29 249.66,58.24L250.49,57.77C250.573,57.722 250.674,57.719 250.76,57.76Z" style="fill:rgb(58,44,109);fill-rule:nonzero;"/>
                        <path d="M249.54,57.06L250.4,57.56C250.47,57.56 250.46,57.67 250.4,57.72L249.58,58.19C249.492,58.235 249.388,58.235 249.3,58.19L248.44,57.69C248.37,57.69 248.38,57.57 248.44,57.53L249.26,57.05C249.35,57.009 249.454,57.012 249.54,57.06Z" style="fill:rgb(58,44,109);fill-rule:nonzero;"/>
                        <path d="M248.32,56.35L249.18,56.85C249.25,56.85 249.24,56.96 249.18,57.01L248.36,57.49C248.271,57.53 248.169,57.53 248.08,57.49L247.22,56.99C247.14,56.99 247.15,56.88 247.22,56.83L248.04,56.35C248.129,56.31 248.231,56.31 248.32,56.35Z" style="fill:rgb(58,44,109);fill-rule:nonzero;"/>
                        <path d="M247.09,55.65L247.96,56.15C248.03,56.15 248.02,56.26 247.96,56.31L247.13,56.78C247.046,56.824 246.944,56.824 246.86,56.78L245.99,56.28C245.92,56.28 245.93,56.17 245.99,56.13L246.82,55.65C246.904,55.606 247.006,55.606 247.09,55.65Z" style="fill:rgb(58,44,109);fill-rule:nonzero;"/>
                        <path d="M244.36,54.07L246.74,55.44C246.81,55.44 246.8,55.55 246.74,55.6L245.91,56.08C245.821,56.12 245.719,56.12 245.63,56.08L243.26,54.7C243.19,54.7 243.19,54.59 243.26,54.55L244.08,54.07C244.168,54.025 244.272,54.025 244.36,54.07Z" style="fill:rgb(58,44,109);fill-rule:nonzero;"/>
                        <path d="M260.54,63.41L261.72,64.09C261.79,64.09 261.78,64.21 261.72,64.25L260.9,64.73C260.812,64.775 260.708,64.775 260.62,64.73L259.44,64.05C259.37,64.05 259.38,63.94 259.44,63.89L260.27,63.41C260.356,63.37 260.454,63.37 260.54,63.41Z" style="fill:rgb(58,44,109);fill-rule:nonzero;"/>
                        <path d="M239.57,56.83L256.93,66.83C257,66.83 257,66.94 256.93,66.99L256.52,67.22C256.436,67.264 256.334,67.264 256.25,67.22L238.88,57.22C238.81,57.22 238.82,57.11 238.88,57.06L239.29,56.82C239.38,56.783 239.482,56.787 239.57,56.83Z" style="fill:rgb(58,44,109);fill-rule:nonzero;"/>
                        <path id="_Контур_4_" serif:id="_Контур_4" d="M259.89,57.28L259.77,57.34L256.77,59.08L251.44,56L251.33,55.93L254.44,54.14L259.89,57.28Z" style="fill:rgb(191,191,191);fill-rule:nonzero;"/>
                        <path id="_Контур_5_" serif:id="_Контур_5" d="M259.77,57.34L256.77,59.08L251.44,56L254.44,54.27L259.77,57.34Z" style="fill:rgb(229,229,229);fill-rule:nonzero;"/>
                        <path id="_Контур_6_" serif:id="_Контур_6" d="M268.44,61.32L268.44,61.59C268.443,61.98 268.237,62.343 267.9,62.54L257.32,68.64C256.984,68.839 256.566,68.839 256.23,68.64L237.09,57.64C236.735,57.436 236.523,57.049 236.54,56.64L236.54,56.37L256.77,68.05L268.44,61.32Z" style="fill:rgb(229,229,229);fill-rule:nonzero;"/>
                        <path id="_Контур_7_" serif:id="_Контур_7" d="M256.47,68.22C256.104,68.364 255.692,68.335 255.35,68.14L236.35,57.14C236.014,56.947 235.783,56.612 235.72,56.23L233.63,43.79C233.625,43.72 233.625,43.65 233.63,43.58C233.629,43.233 233.77,42.9 234.02,42.66L253.82,54.09C254.061,54.238 254.228,54.482 254.28,54.76L256.47,68.22Z" style="fill:rgb(244,244,244);fill-rule:nonzero;"/>
                        <path id="_Контур_8_" serif:id="_Контур_8" d="M256.77,68.06L256.64,68.14L256.47,68.22L254.21,54.76C254.158,54.482 253.991,54.238 253.75,54.09L234,42.66C234.073,42.577 234.161,42.509 234.26,42.46L254.1,53.91C254.345,54.056 254.516,54.3 254.57,54.58L256.77,68.06Z" style="fill:rgb(229,229,229);fill-rule:nonzero;"/>
                    </g>
                </g>
                <path id="_Контур_9_" serif:id="_Контур_9" d="M271.16,14.83C271.16,14.83 270.91,19.56 271.02,19.98C271.13,20.4 273.19,21.79 273.79,22.29C274.39,22.79 270.52,26.61 268.64,27.47C266.76,28.33 260.78,26.06 260.64,23.12C260.5,20.18 261.64,17.73 262.58,17.6C263.52,17.47 271.16,14.83 271.16,14.83Z" style="fill:rgb(255,206,169);fill-rule:nonzero;"/>
                <path id="_Контур_10_" serif:id="_Контур_10" d="M271.68,20.8C271.68,20.8 268.25,25.92 263.46,26.4C261.95,24.91 261.81,19.61 263.9,17.92C263.9,17.92 261.98,16.36 260.66,16.67C259.231,17.515 258.162,18.858 257.66,20.44C256.433,23.974 255.861,27.701 255.97,31.44C256.05,36.44 255.97,49.15 255.97,49.15C256.538,52.181 258.378,54.829 261.02,56.42C264.481,58.383 268.566,58.949 272.43,58C274.86,57.43 275.76,56.08 276.6,54.31C276.38,50.8 274.99,43.55 275.6,39.12C276.21,34.69 277.12,31.39 277.36,27.82C277.6,24.25 276.89,24.31 275.09,23.03C274.009,22.205 272.869,21.46 271.68,20.8Z" style="fill:rgb(244,244,244);fill-rule:nonzero;"/>
                <path id="_Контур_11_" serif:id="_Контур_11" d="M266.18,61.59C267.041,61.017 267.94,60.502 268.87,60.05C269.737,59.773 270.526,59.293 271.17,58.65C272.01,57.83 273.39,54.71 274.38,51.65C275.365,48.218 275.754,44.643 275.53,41.08C275.12,36.81 273.58,30.84 273.19,28.39C272.8,25.94 273.59,24.95 274.74,24.05C276.08,22.99 277.93,23.46 278.92,26.9C280.195,31.659 280.933,36.546 281.12,41.47C281.161,45.127 280.596,48.767 279.45,52.24C278.431,55.215 277.054,58.056 275.35,60.7C274.88,61.49 274.72,62.2 274,63.82C273.309,65.448 272.231,66.883 270.86,68C269.66,68.86 269.09,69 268.8,68.82C268.51,68.64 268.52,68.23 269.03,67.82C269.881,67.151 270.606,66.335 271.17,65.41C271.734,64.485 270.12,66.47 269.43,67.05C268.823,67.563 268.15,67.994 267.43,68.33C266.73,68.64 265.75,68.04 266.25,67.57C266.75,67.1 267.25,66.86 268.25,65.99C268.788,65.534 269.268,65.013 269.68,64.44C268.976,64.982 268.231,65.467 267.45,65.89C266.847,66.255 266.155,66.445 265.45,66.44C265.08,66.44 264.63,65.9 265.33,65.44C266.292,64.919 267.189,64.284 268,63.55C268.77,62.79 269.2,62.14 269,62.13C268.8,62.12 268.36,62.59 267.46,62.88C266.56,63.17 265.59,62.88 265.46,62.41C265.33,61.94 265.34,62 266.18,61.59Z" style="fill:rgb(255,206,169);fill-rule:nonzero;"/>
                <path id="_Контур_12_" serif:id="_Контур_12" d="M260.44,7.77C261.01,4.1 263.66,1.32 267.44,1.53C271.289,1.726 274.35,4.946 274.35,8.801C274.35,11.215 273.149,13.477 271.15,14.83C271.016,15.388 270.818,15.928 270.56,16.44C269.23,18 265.18,19 264,18.8C262.59,18.672 261.396,17.689 261,16.33C259.74,13.45 260.13,9.59 260.44,7.77Z" style="fill:rgb(255,206,169);fill-rule:nonzero;"/>
                <path d="M271.16,14.83L270.81,11.62C270.81,11.62 273.43,4.84 267.24,6.14C263.16,7 262.13,7.38 260.89,4.64C259.65,1.9 264,-0.57 269.23,0.12C272.927,0.502 275.747,3.694 275.67,7.41C275.54,9.43 275,13.51 271.16,14.83Z" style="fill:rgb(58,44,109);fill-rule:nonzero;"/>
                <path d="M281.75,33.23C281.75,33.23 278.37,36.59 274.38,35.62C273.81,35.23 272.43,27.38 272.43,27.38C272.43,27.38 272.43,23.03 275.77,23.14C279.11,23.25 281.75,33.23 281.75,33.23Z" style="fill:rgb(237,237,237);fill-rule:nonzero;"/>
                <path d="M256.25,26.71C255.305,26.676 254.409,26.278 253.75,25.6C253.89,23.84 256.14,17.16 260.66,16.67C259.431,17.532 258.456,18.711 257.84,20.08C257.137,22.245 256.605,24.462 256.25,26.71Z" style="fill:rgb(237,237,237);fill-rule:nonzero;"/>
            </g>
            <path d="M459.4,311.15L375.88,262.93C370.63,259.93 366.38,251.78 366.38,244.79L366.38,113.38C366.38,106.38 370.63,103.18 375.88,106.2L459.4,154.43C464.64,157.43 468.89,165.58 468.89,172.57L468.89,304C468.89,311 464.64,314.18 459.4,311.15Z" style="fill:rgb(33,27,73);fill-rule:nonzero;"/>
            <path d="M462.74,313.07L465.6,311.66L463.67,307.87L462.74,313.07Z" style="fill:rgb(33,27,73);fill-rule:nonzero;"/>
            <path d="M367.94,106.57C368.781,106.07 369.665,105.645 370.58,105.3L372.7,109.49L367.94,106.57Z" style="fill:rgb(33,27,73);fill-rule:nonzero;"/>
            <path d="M457.21,312.25L373.68,264C368.44,261 364.19,252.85 364.19,245.86L364.19,114.48C364.19,107.48 368.44,104.27 373.68,107.3L457.21,155.53C462.45,158.53 466.7,166.67 466.7,173.66L466.7,305.07C466.7,312.06 462.45,315.28 457.21,312.25Z" style="fill:rgb(46,36,91);fill-rule:nonzero;"/>
            <path d="M388.87,134.7L373.68,125.93L373.68,120.45L388.87,129.22L388.87,134.7Z" style="fill:rgb(162,152,226);fill-rule:nonzero;"/>
            <path d="M456.26,173.61L391.72,136.34L391.72,130.87L456.26,168.13L456.26,173.61Z" style="fill:rgb(195,58,252);fill-rule:nonzero;"/>
            <path d="M388.87,152.24L373.68,143.47L373.68,137.99L388.87,146.76L388.87,152.24Z" style="fill:rgb(162,152,226);fill-rule:nonzero;"/>
            <path d="M434.43,178.54L391.72,153.88L391.72,148.4L434.43,173.06L434.43,178.54Z" style="fill:rgb(244,206,44);fill-rule:nonzero;"/>
            <path d="M388.87,161L373.68,152.24L373.68,146.76L388.87,155.52L388.87,161Z" style="fill:rgb(162,152,226);fill-rule:nonzero;"/>
            <path d="M444.87,193.34L391.72,162.65L391.72,157.17L444.87,187.86L444.87,193.34Z" style="fill:rgb(255,134,87);fill-rule:nonzero;"/>
            <path d="M388.87,169.77L373.68,161L373.68,155.52L388.87,164.29L388.87,169.77Z" style="fill:rgb(162,152,226);fill-rule:nonzero;"/>
            <path d="M428.74,192.79L391.72,171.42L391.72,165.94L428.74,187.31L428.74,192.79Z" style="fill:rgb(162,152,226);fill-rule:nonzero;"/>
            <path d="M388.87,143.47L373.68,134.7L373.68,129.22L388.87,137.99L388.87,143.47Z" style="fill:rgb(162,152,226);fill-rule:nonzero;"/>
            <path d="M423.99,163.75L391.72,145.11L391.72,139.63L423.99,158.26L423.99,163.75Z" style="fill:rgb(77,59,255);fill-rule:nonzero;"/>
            <path d="M388.87,178.54L373.68,169.77L373.68,164.29L388.87,173.06L388.87,178.54Z" style="fill:rgb(162,152,226);fill-rule:nonzero;"/>
            <path d="M410.7,191.14L391.72,180.18L391.72,174.7L410.7,185.66L410.7,191.14Z" style="fill:rgb(195,58,252);fill-rule:nonzero;"/>
            <path d="M388.87,196.07L373.68,187.31L373.68,181.83L388.87,190.6L388.87,196.07Z" style="fill:rgb(162,152,226);fill-rule:nonzero;"/>
            <path d="M451.52,232.24L391.72,197.72L391.72,192.24L451.52,226.76L451.52,232.24Z" style="fill:rgb(244,206,44);fill-rule:nonzero;"/>
            <path d="M388.87,204.84L373.68,196.07L373.68,190.59L388.87,199.36L388.87,204.84Z" style="fill:rgb(162,152,226);fill-rule:nonzero;"/>
            <path d="M409.75,216.9L391.72,206.49L391.72,201.01L409.75,211.42L409.75,216.9Z" style="fill:rgb(255,134,87);fill-rule:nonzero;"/>
            <path d="M388.87,213.61L373.68,204.84L373.68,199.36L388.87,208.13L388.87,213.61Z" style="fill:rgb(162,152,226);fill-rule:nonzero;"/>
            <path d="M444.87,245.94L391.72,215.25L391.72,209.78L444.87,240.46L444.87,245.94Z" style="fill:rgb(162,152,226);fill-rule:nonzero;"/>
            <path d="M388.87,187.31L373.68,178.54L373.68,173.06L388.87,181.83L388.87,187.31Z" style="fill:rgb(162,152,226);fill-rule:nonzero;"/>
            <path d="M442.02,218L391.72,188.95L391.72,183.47L442.02,212.52L442.02,218Z" style="fill:rgb(77,59,255);fill-rule:nonzero;"/>
            <path d="M388.87,222.38L373.68,213.61L373.68,208.13L388.87,216.9L388.87,222.38Z" style="fill:rgb(162,152,226);fill-rule:nonzero;"/>
            <path d="M398.36,227.86L391.72,224.02L391.72,218.54L398.36,222.38L398.36,227.86Z" style="fill:rgb(195,58,252);fill-rule:nonzero;"/>
            <path d="M388.87,239.91L373.68,231.15L373.68,225.67L388.87,234.44L388.87,239.91Z" style="fill:rgb(162,152,226);fill-rule:nonzero;"/>
            <path d="M404.06,248.68L391.72,241.56L391.72,236.08L404.06,243.2L404.06,248.68Z" style="fill:rgb(244,206,44);fill-rule:nonzero;"/>
            <path d="M388.87,248.68L373.68,239.91L373.68,234.43L388.87,243.2L388.87,248.68Z" style="fill:rgb(162,152,226);fill-rule:nonzero;"/>
            <path d="M423.99,268.96L391.72,250.33L391.72,244.85L423.99,263.48L423.99,268.96Z" style="fill:rgb(255,134,87);fill-rule:nonzero;"/>
            <path d="M388.87,257.45L373.68,248.68L373.68,243.2L388.87,251.97L388.87,257.45Z" style="fill:rgb(162,152,226);fill-rule:nonzero;"/>
            <path d="M442.97,288.69L391.72,259.09L391.72,253.61L442.97,283.21L442.97,288.69Z" style="fill:rgb(162,152,226);fill-rule:nonzero;"/>
            <path d="M388.87,231.15L373.68,222.38L373.68,216.9L388.87,225.67L388.87,231.15Z" style="fill:rgb(162,152,226);fill-rule:nonzero;"/>
            <path d="M456.26,270.06L391.72,232.79L391.72,227.31L456.26,264.57L456.26,270.06Z" style="fill:rgb(77,59,255);fill-rule:nonzero;"/>
        </g>
    </g>
    <defs>
        <linearGradient id="_Linear1" x1="0" y1="0" x2="1" y2="0" gradientUnits="userSpaceOnUse" gradientTransform="matrix(1.17787e-14,-192.36,192.36,1.17787e-14,321.247,289.532)"><stop offset="0" style="stop-color:white;stop-opacity:0"/><stop offset="0.21" style="stop-color:white;stop-opacity:0"/><stop offset="1" style="stop-color:white;stop-opacity:0.1"/></linearGradient>
        <linearGradient id="_Linear2" x1="0" y1="0" x2="1" y2="0" gradientUnits="userSpaceOnUse" gradientTransform="matrix(3.18286e-15,51.98,-51.98,3.18286e-15,342.773,239.828)"><stop offset="0" style="stop-color:rgb(233,234,242);stop-opacity:0.8"/><stop offset="1" style="stop-color:rgb(233,234,242);stop-opacity:0"/></linearGradient>
    </defs>
</svg>
