<?xml version="1.0" standalone="no"?>
<!DOCTYPE svg PUBLIC "-//W3C//DTD SVG 20010904//EN"
 "http://www.w3.org/TR/2001/REC-SVG-20010904/DTD/svg10.dtd">
<svg version="1.0" xmlns="http://www.w3.org/2000/svg"
 width="512.000000pt" height="512.000000pt" viewBox="0 0 512.000000 512.000000"
 preserveAspectRatio="xMidYMid meet">
<metadata>
Created by potrace 1.11, written by Peter Selinger 2001-2013
</metadata>
<g transform="translate(0.000000,512.000000) scale(0.100000,-0.100000)"
fill="#000000" stroke="none">
<path d="M502 3067 l-502 -502 239 -240 c131 -132 237 -243 234 -248 -2 -4 0
-6 5 -5 14 4 161 -145 155 -157 -4 -5 -3 -7 2 -3 11 10 146 -122 138 -135 -3
-6 -2 -8 3 -4 5 3 58 -44 118 -103 99 -99 111 -108 130 -97 12 6 25 10 29 9 5
-1 6 2 2 7 -3 6 38 53 91 106 87 88 94 98 80 113 -8 9 -181 183 -385 386
l-370 370 386 384 385 385 -118 118 c-65 66 -119 119 -119 119 0 0 -226 -227
-503 -503z"/>
<path d="M3995 3445 l-118 -116 29 -31 c16 -17 42 -44 58 -59 18 -17 25 -32
21 -40 -5 -8 -4 -10 4 -5 14 9 268 -241 263 -258 -2 -6 0 -8 4 -3 10 10 85
-63 77 -76 -3 -6 -2 -7 3 -4 6 3 78 -63 162 -147 149 -149 152 -152 131 -169
-11 -10 -25 -15 -31 -11 -7 5 -8 2 -3 -5 5 -8 -116 -135 -354 -373 -315 -313
-360 -362 -349 -376 7 -9 41 -44 76 -79 37 -37 60 -68 56 -75 -5 -7 -3 -8 6
-3 8 5 24 -6 47 -31 l34 -39 45 48 c27 27 50 44 57 41 7 -4 8 -3 4 1 -10 11
183 206 196 198 6 -3 7 -1 3 5 -4 6 2 17 14 24 11 7 20 18 20 25 0 7 4 13 9
13 12 0 71 59 71 71 0 5 6 9 13 10 6 0 35 27 62 59 28 32 53 59 57 59 4 1 30
26 59 56 28 30 56 52 62 48 5 -3 7 -2 4 4 -8 13 37 56 48 46 4 -5 5 -3 2 3 -7
12 103 121 118 116 5 -2 6 0 2 4 -4 4 31 47 78 94 l85 85 -503 503 -503 503
-119 -116z"/>
<path d="M1670 2658 l0 -158 158 0 157 0 -1 150 c0 82 -4 153 -8 157 -4 4 -75
8 -157 8 l-149 1 0 -158z"/>
<path d="M2305 2811 c-3 -2 -5 -73 -5 -158 l0 -154 158 3 157 3 0 148 c0 82
-2 152 -5 156 -5 7 -298 10 -305 2z"/>
<path d="M2934 2811 c-2 -2 -4 -73 -4 -158 0 -129 2 -153 15 -153 8 -1 60 -1
115 -1 55 0 120 0 144 1 l43 0 0 155 c0 85 -3 156 -6 156 -18 4 -303 4 -307 0z"/>
<path d="M4430 2721 c0 -6 4 -13 10 -16 6 -3 7 1 4 9 -7 18 -14 21 -14 7z"/>
<path d="M4435 2651 c-3 -5 -2 -12 3 -15 5 -3 9 1 9 9 0 17 -3 19 -12 6z"/>
<path d="M4513 2633 c0 -9 4 -10 14 -2 7 6 13 12 13 14 0 1 -6 2 -13 2 -8 0
-14 -6 -14 -14z"/>
<path d="M76 2447 c3 -10 9 -15 12 -12 3 3 0 11 -7 18 -10 9 -11 8 -5 -6z"/>
<path d="M3069 2403 c-13 -16 -12 -17 4 -4 16 13 21 21 13 21 -2 0 -10 -8 -17
-17z"/>
<path d="M1950 2401 c0 -6 4 -13 10 -16 6 -3 7 1 4 9 -7 18 -14 21 -14 7z"/>
<path d="M156 2282 c-3 -5 1 -9 9 -9 8 0 12 4 9 9 -3 4 -7 8 -9 8 -2 0 -6 -4
-9 -8z"/>
<path d="M230 2280 c0 -5 5 -10 11 -10 5 0 7 5 4 10 -3 6 -8 10 -11 10 -2 0
-4 -4 -4 -10z"/>
<path d="M435 2040 c3 -5 8 -10 11 -10 2 0 4 5 4 10 0 6 -5 10 -11 10 -5 0 -7
-4 -4 -10z"/>
<path d="M4386 1718 c3 -5 10 -6 15 -3 13 9 11 12 -6 12 -8 0 -12 -4 -9 -9z"/>
<path d="M4225 1560 c-3 -6 1 -7 9 -4 18 7 21 14 7 14 -6 0 -13 -4 -16 -10z"/>
</g>
</svg>
